<svg width="186" height="67" viewBox="0 0 186 67" fill="none" xmlns="http://www.w3.org/2000/svg">
<path d="M131.127 66.7187C130.548 66.7187 130.081 66.4519 129.725 65.9181C129.325 65.3844 129.125 64.695 129.125 63.8499C129.125 61.9818 129.948 61.0478 131.594 61.0478C134.796 61.0478 137.732 59.9358 140.4 57.7119C143.069 55.4435 145.449 52.2188 147.539 48.0378V13.8117C147.539 9.36391 148.473 5.93907 150.341 3.53724C152.254 1.13541 155.011 -0.0432648 158.614 0.00121301C161.906 0.0456908 164.463 1.29108 166.287 3.73739C168.155 6.1837 169.089 9.36391 169.089 13.278C169.089 19.7718 167.132 26.9996 163.218 34.9612C163.529 34.9167 163.84 34.8945 164.152 34.8945C167.488 34.8945 170.134 36.0732 172.091 38.4305C174.093 40.7879 175.093 43.9458 175.093 47.9044V53.6421C175.093 56.2219 175.405 58.0899 176.027 59.2464C176.695 60.4028 177.784 60.981 179.297 60.981C179.786 60.981 180.32 60.8698 180.898 60.6475C181.476 60.4251 182.076 60.0915 182.699 59.6467C183.455 60.0025 184.078 60.6252 184.567 61.5148C185.057 62.3599 185.279 63.205 185.234 64.05C184.523 64.8507 183.611 65.4956 182.499 65.9848C181.387 66.4741 180.186 66.7187 178.896 66.7187C175.694 66.7187 173.225 65.6957 171.491 63.6497C169.8 61.5593 168.955 58.6237 168.955 54.843V47.771C168.955 45.5026 168.444 43.7457 167.421 42.5003C166.442 41.2104 165.041 40.5655 163.218 40.5655C161.439 40.5655 159.837 41.1659 158.414 42.3668C156.991 43.5233 155.856 45.1245 155.011 47.1705C154.166 49.2165 153.722 51.5739 153.677 54.2426V65.7847C153.232 65.9181 152.743 66.0293 152.209 66.1183C151.676 66.2072 151.164 66.2517 150.675 66.2517C149.652 66.2517 148.607 66.096 147.539 65.7847V58.3123C145.36 61.159 142.847 63.2717 140 64.6505C137.153 66.0293 134.196 66.7187 131.127 66.7187ZM153.477 13.745V40.0317C156.59 35.317 158.97 30.6468 160.616 26.0211C162.306 21.3953 163.151 17.1254 163.151 13.2113C163.151 10.7205 162.728 8.83017 161.883 7.5403C161.083 6.20594 159.904 5.53877 158.347 5.53877C155.1 5.53877 153.477 8.27419 153.477 13.745Z" fill="#04A9B3"/>
<path d="M106.902 60.9804C108.325 60.9804 109.726 60.291 111.105 58.9122C112.528 57.5334 113.751 55.6653 114.775 53.3079C114.597 52.2849 114.508 51.2397 114.508 50.1722C114.508 46.8808 115.13 43.9897 116.376 41.4989C117.621 38.9636 119.334 36.9844 121.513 35.5611C123.737 34.0933 126.272 33.3594 129.119 33.3594C131.254 33.3594 133.189 33.7819 134.923 34.627C136.702 35.4276 138.148 36.6063 139.26 38.163C138.726 39.9866 137.436 41.2988 135.39 42.0994C133.922 40.0978 131.899 39.0971 129.319 39.0971C126.739 39.0971 124.649 40.0756 123.047 42.0327C121.491 43.9452 120.712 46.5472 120.712 49.8386C120.712 53.219 121.691 55.9321 123.648 57.9781C125.649 60.0241 128.474 61.0471 132.121 61.0471C132.699 61.0471 133.166 61.3363 133.522 61.9145C133.922 62.4482 134.123 63.1376 134.123 63.9827C134.123 64.8278 133.9 65.495 133.455 65.9842C133.055 66.4735 132.477 66.7181 131.721 66.7181C128.563 66.7181 125.761 66.1399 123.314 64.9835C120.868 63.827 118.911 62.2036 117.443 60.1131C114.686 64.5165 111.016 66.7181 106.435 66.7181C105.857 66.7181 105.39 66.4513 105.034 65.9175C104.678 65.3838 104.5 64.6944 104.5 63.8493C104.5 61.9367 105.301 60.9804 106.902 60.9804Z" fill="#04A9B3"/>
<path d="M107.05 66.7178C102.869 66.7178 99.8446 65.1833 97.9765 62.1143C96.1529 59.0008 95.2411 54.7309 95.2411 49.3046V36.7617C93.1506 39.208 90.7488 41.0761 88.0356 42.3659C85.3224 43.6558 82.7872 44.3007 80.4298 44.3007C79.5847 44.3007 78.962 44.0339 78.5617 43.5001C78.1169 42.9219 77.8945 42.2103 77.8945 41.3652C77.8945 39.8084 78.584 38.9633 79.9628 38.8299C82.6315 38.5186 85.1223 37.6735 87.4351 36.2946C89.748 34.8713 91.6161 33.0255 93.0394 30.7571C94.5072 28.4442 95.2411 25.8645 95.2411 23.0179V17.1467C96.0862 16.8354 97.1092 16.6797 98.3101 16.6797C99.3776 16.6797 100.401 16.8354 101.379 17.1467V28.9557H111.32C111.631 29.6674 111.787 30.5569 111.787 31.6244C111.787 32.6919 111.631 33.5815 111.32 34.2931H101.379V48.5707C101.379 52.6627 101.846 55.7539 102.78 57.8444C103.759 59.9349 105.338 60.9801 107.517 60.9801C108.807 60.9801 109.452 61.9587 109.452 63.9157C109.452 64.7608 109.23 65.428 108.785 65.9172C108.384 66.451 107.806 66.7178 107.05 66.7178Z" fill="#04A9B3"/>
<path d="M47.2339 60.9804C48.7016 60.9804 50.125 60.291 51.5038 58.9122C52.9271 57.4889 54.128 55.5986 55.1065 53.2412C54.9286 52.1737 54.8397 51.084 54.8397 49.972C54.8397 46.7696 55.5291 43.923 56.9079 41.4322C58.2867 38.9414 60.1548 36.9844 62.5122 35.5611C64.914 34.0933 67.6049 33.3594 70.585 33.3594C73.565 33.3594 76.2337 34.0933 78.5911 35.5611C80.9485 36.9844 82.7943 38.9414 84.1287 41.4322C85.5075 43.923 86.1969 46.7696 86.1969 49.972C86.1969 53.1745 85.5075 56.0433 84.1287 58.5786C82.7943 61.1139 80.9485 63.1154 78.5911 64.5832C76.2782 66.0065 73.6095 66.7181 70.585 66.7181C67.8718 66.7181 65.4033 66.1399 63.1794 64.9835C60.9999 63.7826 59.1985 62.1591 57.7752 60.1131C55.0176 64.5165 51.3481 66.7181 46.7668 66.7181C46.1886 66.7181 45.7216 66.4513 45.3658 65.9175C45.0099 65.3838 44.832 64.6944 44.832 63.8493C44.832 61.9367 45.6326 60.9804 47.2339 60.9804ZM70.5183 60.9804C73.3649 60.9804 75.6333 59.9797 77.3235 57.9781C79.0581 55.9766 79.9255 53.3079 79.9255 49.972C79.9255 48.3263 79.6808 46.8141 79.1916 45.4352C76.5229 45.3463 74.0988 44.8126 71.9193 43.834C69.7844 42.8555 68.0942 41.5212 66.8488 39.831C65.0697 40.5871 63.6686 41.877 62.6456 43.7006C61.6226 45.4797 61.1111 47.6147 61.1111 50.1055C61.1111 53.3524 61.9562 55.9766 63.6464 57.9781C65.381 59.9797 67.6717 60.9804 70.5183 60.9804Z" fill="#04A9B3"/>
<path d="M4.87038 48.1707C3.89186 47.9483 2.98005 47.5702 2.13496 47.0365C1.28987 46.5027 0.578219 45.7688 0 44.8348L2.2684 41.4322C4.40336 38.2742 6.31593 36.1393 8.0061 35.0273C9.74076 33.9154 11.6089 33.3594 13.6104 33.3594C15.6119 33.3594 17.3021 33.9598 18.6809 35.1607C20.0597 36.3172 21.016 37.8962 21.5498 39.8977C22.7952 37.8072 24.3964 36.206 26.3534 35.094C28.3105 33.9376 30.4899 33.3594 32.8917 33.3594C36.3611 33.3594 39.0298 34.4936 40.8978 36.762C42.8104 39.0304 43.7667 42.2106 43.7667 46.3026V54.1085C43.7667 56.5548 44.078 58.3117 44.7007 59.3792C45.3679 60.4467 46.4132 60.9804 47.8365 60.9804C48.4592 60.9804 48.9262 61.2473 49.2375 61.781C49.5934 62.3148 49.7713 63.0264 49.7713 63.916C49.7713 64.6277 49.5711 65.2726 49.1708 65.8508C48.815 66.429 48.2145 66.7181 47.3694 66.7181C40.9201 66.7181 37.6954 62.7596 37.6954 54.8424V46.3026C37.6954 41.4989 35.8051 39.0971 32.0244 39.0971C30.0674 39.0971 28.3327 39.8755 26.8204 41.4322C25.3527 42.9889 24.1962 45.1461 23.3511 47.9038C22.5505 50.6615 22.1502 53.8639 22.1502 57.5111V65.7841C21.7054 65.9175 21.2162 66.0287 20.6824 66.1177C20.1487 66.2066 19.6372 66.2511 19.1479 66.2511C18.0805 66.2511 17.0797 66.0954 16.1456 65.7841V44.5012C16.1456 42.7665 15.9233 41.4322 15.4785 40.4982C15.0337 39.5641 14.2331 39.0971 13.0766 39.0971C12.4095 39.0971 11.6533 39.4084 10.8082 40.0311C10.0076 40.6093 8.91791 41.9659 7.53908 44.1009L4.87038 48.1707Z" fill="#04A9B3"/>
</svg>
