<svg width="100" height="100" viewBox="0 0 100 100" fill="none" xmlns="http://www.w3.org/2000/svg">
<g clip-path="url(#clip0_2930_65560)">
<path d="M71.0578 94.1803C78.1854 90.8857 79.9131 84.1677 80.0856 75.4814C80.2152 69.7046 79.6106 62.9866 81.0362 56.6109C82.4185 50.4493 85.9606 44.6296 88.3792 39.2811C92.0081 31.5361 93.347 24.6898 88.5088 18.6136C83.5415 12.5374 76.5439 12.3235 68.034 14.0779C62.2458 15.3616 55.7233 17.3299 49.2007 17.3299C42.6783 17.3299 36.1557 15.3616 30.4107 14.0779C21.8579 12.2807 14.817 12.5374 9.93582 18.6136C5.05471 24.6898 6.39377 31.5361 10.0222 39.2811C12.4412 44.6296 15.94 50.4493 17.3655 56.6538C18.791 62.9866 18.1862 69.7046 18.3158 75.4814C18.4886 84.1677 20.2164 90.8857 27.3438 94.1803C29.4604 95.2073 31.5338 95.6779 33.5639 95.6779C38.2723 95.6779 42.8511 93.1961 47.6459 89.5164C52.3974 86.0075 57.4943 81.3437 63.2826 78.5622C69.2005 75.7382 75.8526 74.8395 81.5113 73.4273C90.0641 71.3307 96.2411 68.164 98.0122 60.5903C99.7833 53.0595 95.5931 47.4111 88.8547 41.9768C84.2324 38.2113 78.6171 34.4458 74.5137 29.3966C70.4965 24.3902 68.207 18.1857 65.5287 12.9225C61.5549 5.26314 57.0626 0 49.2007 0C41.3824 0 36.8468 5.26314 32.916 12.9225C30.2379 18.1857 27.9053 24.3474 23.8449 29.3966C19.7845 34.4886 14.169 38.2113 9.59027 41.9768C2.85171 47.4111 -1.33828 53.0595 0.389553 60.5903C2.16058 68.164 8.33756 71.3307 16.804 73.4273C22.5922 74.8395 29.2012 75.7382 35.119 78.5622C40.864 81.3437 46.0045 85.9646 50.7126 89.5593C55.5074 93.1961 60.0863 95.6779 64.7945 95.6779C66.8681 95.6779 68.9413 95.2073 71.0578 94.1803ZM68.0774 88.0617C63.2397 90.2867 59.1791 87.2055 55.0323 84.1247C49.8487 80.2737 44.2763 75.3101 38.1859 72.4002C31.8793 69.4049 24.6656 68.2499 18.4454 66.7523C13.3483 65.4684 8.38078 64.2275 7.17129 59.0501C6.00501 53.9152 9.93582 50.6632 13.9098 47.3256C18.8774 43.2605 24.968 39.0671 29.2444 33.7184C33.6072 28.4125 36.1989 21.6944 39.1362 16.0034C41.512 11.3393 43.8877 6.88918 49.2007 6.88918C54.5573 6.88918 56.8897 11.3393 59.2654 16.0034C62.1595 21.6944 64.7945 28.3697 69.1142 33.7184C73.4335 39.1099 79.481 43.2605 84.4487 47.3256C88.5088 50.6632 92.3969 53.9152 91.2305 59.0501C90.0207 64.2275 85.0534 65.4684 79.9565 66.7523C74.0386 68.164 66.5222 69.4049 60.2159 72.4002C54.1251 75.3101 48.3802 80.3591 43.3694 84.1677C39.2226 87.2055 35.119 90.2867 30.3243 88.0617C25.5727 85.7508 25.4 80.6159 25.2704 75.4385C25.1407 69.1057 25.6591 61.8312 24.1472 55.0707C22.5922 48.5665 19.0502 42.1908 16.2856 36.2858C14.2122 31.6217 12.0524 27.0004 15.3353 22.9354C18.7046 18.8275 23.6721 19.7689 28.8124 20.7958C35.0758 22.1224 42.2031 24.219 49.2007 24.219C56.1988 24.219 63.3259 22.1224 69.5893 20.7958C74.7295 19.7261 79.6973 18.8275 83.0231 22.9354C86.3494 27.0004 84.1895 31.6217 82.1159 36.2858C79.3514 42.1908 75.7663 48.5665 74.2978 55.1132C72.7426 61.8312 73.261 69.1057 73.1314 75.4385C73.0018 80.6159 72.8722 85.7508 68.0774 88.0617Z" fill="white" fill-opacity="0.85"/>
</g>
<defs>
<clipPath id="clip0_2930_65560">
<rect width="100" height="100" fill="white"/>
</clipPath>
</defs>
</svg>
