<svg width="186" height="100" viewBox="0 0 186 100" fill="none" xmlns="http://www.w3.org/2000/svg">
<g clip-path="url(#clip0_2930_65510)">
<path d="M91.4184 100C93.7552 100 95.405 98.715 95.405 96.4164C95.405 95.4021 95.1988 94.8613 94.4428 93.4413C86.0571 80.6624 81.2455 65.9903 81.2455 50.1013C81.2455 34.7531 85.7819 19.4049 94.4428 6.55847C95.1988 5.1386 95.405 4.59768 95.405 3.58349C95.405 1.41987 93.7552 0 91.4184 0C89.1498 0 87.3627 1.01419 85.1632 3.98917C74.7841 16.9033 69.6289 32.9951 69.6289 50.0336C69.6289 67.0722 74.6468 82.6911 85.1632 96.0106C87.3627 98.9857 89.1498 100 91.4184 100ZM105.853 82.0825C108.053 82.0825 109.633 81.3382 111.352 78.9045L126.405 57.8092H126.68L142.076 79.2424C143.795 81.6089 145.445 82.0825 147.094 82.0825C150.394 82.0825 152.524 79.7832 152.524 77.011C152.524 75.7266 152.181 74.5095 151.287 73.3601L133.691 49.8309L151.287 26.6396C152.112 25.4901 152.593 24.2731 152.593 22.8532C152.593 19.9459 150.119 17.9175 147.3 17.9175C144.826 17.9175 143.452 19.1345 142.145 21.0953L127.642 41.9877H127.298L112.726 21.0277C111.352 19.0669 109.771 17.9175 107.159 17.9175C103.928 17.9175 101.522 20.4192 101.522 23.1236C101.522 25.0845 102.141 26.3015 103.035 27.4509L119.806 49.4928L102.004 73.6309C101.042 74.9152 100.835 76.0645 100.835 77.4167C100.835 80.0539 103.103 82.0825 105.853 82.0825ZM161.667 100C163.935 100 165.722 98.9857 167.921 96.0106C178.438 82.6911 183.456 67.0722 183.456 50.0336C183.456 32.9951 178.3 16.9033 167.921 3.98917C165.722 1.01419 163.935 0 161.667 0C159.329 0 157.68 1.41987 157.68 3.58349C157.68 4.59768 157.886 5.1386 158.642 6.55847C167.303 19.4049 171.84 34.7531 171.84 50.1013C171.84 65.9903 167.028 80.6624 158.642 93.4413C157.886 94.8613 157.68 95.4021 157.68 96.4164C157.68 98.58 159.329 100 161.667 100Z" fill="white" fill-opacity="0.85"/>
<path d="M9.27938 99.8641C22.7516 99.8641 28.9379 94.1847 32.2372 78.9715L40.0731 41.9875H52.5144C56.501 41.9875 59.0443 39.8915 59.0443 36.5108C59.0443 33.6035 57.1197 31.7779 53.9579 31.7779H42.2727L44.1973 22.5825C46.0532 13.9956 48.8026 10.4798 56.3636 10.4798C57.5321 10.4798 58.6319 10.4122 59.388 10.3446C62.7561 10.0065 64.337 8.45138 64.337 5.54404C64.337 1.75771 61.1064 0.0673828 54.5077 0.0673828C41.3792 0.0673828 34.643 6.49062 31.5499 20.9598L29.2816 31.7779H20.7583C16.7029 31.7779 14.1596 33.8739 14.1596 37.2546C14.1596 40.1619 16.0843 41.9875 19.3148 41.9875H27.082L19.5211 77.3493C17.5964 86.2066 14.7783 89.4517 7.42352 89.4517C6.46119 89.4517 5.49889 89.5195 4.88026 89.5874C1.71841 89.9924 0 91.6832 0 94.5225C0 98.174 3.16186 99.8641 9.27938 99.8641Z" fill="white" fill-opacity="0.85"/>
</g>
<defs>
<clipPath id="clip0_2930_65510">
<rect width="186" height="100" fill="white"/>
</clipPath>
</defs>
</svg>
