<svg width="106" height="100" viewBox="0 0 106 100" fill="none" xmlns="http://www.w3.org/2000/svg">
<g clip-path="url(#clip0_1752_498)">
<path d="M20.434 44.082C12.7286 48.5391 7.56469 56.9035 7.56469 66.4445C7.56469 80.8185 19.0536 92.3847 33.2846 92.3847C38.0111 92.3847 42.4436 91.0951 46.2384 88.8229C47.9706 90.8212 49.9589 92.5831 52.1414 94.0813C46.7887 97.8176 40.2905 100 33.2846 100C14.9403 100 0 84.9594 0 66.4445C0 53.1847 7.74251 41.6756 18.9433 36.3029C19.109 39.0055 19.625 41.6102 20.434 44.082ZM66.5692 66.4445C66.5692 75.0547 63.3482 82.9138 58.0251 88.8326C55.8107 87.561 53.8194 85.9483 52.1196 84.0596C56.3694 79.4821 58.9692 73.3381 58.9983 66.581C61.6179 66.0351 64.1224 65.1715 66.4545 64.0027L66.5692 66.4445ZM64.943 56.227C62.7915 57.5034 60.4279 58.4509 57.9152 59.008C56.7775 55.1898 54.7761 51.7489 52.1365 48.9108C53.833 47.0326 55.8194 45.4261 58.0271 44.1576C61.129 47.6011 63.5187 51.6986 64.943 56.227ZM52.1312 38.9054C49.9521 40.3998 47.9675 42.1564 46.2381 44.1472C42.4433 41.884 38.011 40.5998 33.2846 40.5998C31.2861 40.5998 29.3416 40.8288 27.4844 41.2843C26.764 38.9168 26.3818 36.4009 26.3818 33.7935C26.3818 33.7684 26.3819 33.7432 26.3856 33.7191C28.6098 33.2345 30.9189 32.9844 33.2846 32.9844C40.2771 32.9844 46.775 35.1697 52.1312 38.9054Z" fill="white" fill-opacity="0.2125"/>
<path d="M104.249 66.4445C104.249 84.9594 89.3088 100 71.0118 100C52.6198 100 37.6797 84.9594 37.6797 66.4445C37.6797 65.6204 37.7096 64.803 37.803 64.0027C40.1329 65.1671 42.6341 66.0283 45.2508 66.5737C45.3143 80.8887 56.8235 92.3847 71.0118 92.3847C85.2426 92.3847 96.6842 80.7713 96.6842 66.4445C96.6842 56.8606 91.487 48.4989 83.7824 44.0556C84.5861 41.582 85.0983 38.9762 85.2605 36.2722C96.477 41.6323 104.249 53.1593 104.249 66.4445ZM77.8149 33.6983C77.8197 33.7293 77.8197 33.7614 77.8197 33.7935C77.8197 36.395 77.4411 38.9053 76.7261 41.2678C74.8926 40.8234 72.9774 40.5998 71.0118 40.5998C59.3667 40.5998 49.5261 48.376 46.3441 59.0036C43.8219 58.4451 41.4491 57.4946 39.2897 56.2157C43.5949 42.7641 56.1811 32.9844 71.0118 32.9844C73.3424 32.9844 75.6193 33.2285 77.8149 33.6983Z" fill="white" fill-opacity="0.425"/>
<path d="M52.1484 67.3008C70.4924 67.3008 85.3855 52.3078 85.3855 33.793C85.3855 15.3256 70.4924 0.285156 52.1484 0.285156C33.7567 0.285156 18.8164 15.3256 18.8164 33.793C18.8164 52.3078 33.7567 67.3008 52.1484 67.3008ZM52.1484 59.6854C37.9172 59.6854 26.3811 48.1195 26.3811 33.793C26.3811 19.5141 37.9172 7.90055 52.1484 7.90055C66.2848 7.90055 77.8209 19.5141 77.8209 33.793C77.8209 48.1195 66.3322 59.6854 52.1484 59.6854Z" fill="#1FECFF" fill-opacity="0.85"/>
</g>
<defs>
<clipPath id="clip0_1752_498">
<rect width="106" height="100" fill="white"/>
</clipPath>
</defs>
</svg>
