<svg width="62" height="100" viewBox="0 0 62 100" fill="none" xmlns="http://www.w3.org/2000/svg">
<g clip-path="url(#clip0_2930_65504)">
<path d="M60.6656 25.5866V80.2961C60.6656 87.8747 56.9505 91.6277 49.4845 91.6277H11.1809C3.71495 91.6277 0 87.8747 0 80.2961V25.5866C0 18.0081 3.71495 14.2549 11.1809 14.2549H11.6584C11.628 14.5483 11.6137 14.8496 11.6137 15.1571V18.9463C11.6137 19.3305 11.6364 19.7051 11.6885 20.0651H11.4695C7.71843 20.0651 5.80688 22.086 5.80688 25.6587V80.224C5.80688 83.8326 7.71843 85.8178 11.4695 85.8178H49.196C52.947 85.8178 54.8586 83.8326 54.8586 80.224V25.6587C54.8586 22.086 52.947 20.0651 49.196 20.0651H48.977C49.0291 19.7051 49.0516 19.3305 49.0516 18.9463V15.1571C49.0516 14.8496 49.0376 14.5483 49.0073 14.2549H49.4845C56.9505 14.2549 60.6656 18.0081 60.6656 25.5866Z" fill="white" fill-opacity="0.85"/>
<path d="M19.1863 22.5193H41.4761C43.568 22.5193 44.8304 21.184 44.8304 18.9466V15.1573C44.8304 12.9198 43.568 11.5846 41.4761 11.5846H38.1577C37.9054 7.50664 34.515 4.18652 30.3312 4.18652C26.1473 4.18652 22.757 7.50664 22.5045 11.5846H19.1863C17.0944 11.5846 15.832 12.9198 15.832 15.1573V18.9466C15.832 21.184 17.0944 22.5193 19.1863 22.5193ZM30.3312 15.013C28.5999 15.013 27.1933 13.5695 27.1933 11.8733C27.1933 10.105 28.5999 8.69756 30.3312 8.69756C32.0624 8.69756 33.469 10.105 33.469 11.8733C33.469 13.5695 32.0624 15.013 30.3312 15.013Z" fill="white" fill-opacity="0.85"/>
<path d="M14.4285 42.6565H46.2399C47.4665 42.6565 48.5124 41.6458 48.5124 40.4189C48.5124 39.1921 47.4665 38.1455 46.2399 38.1455H14.4285C13.2022 38.1455 12.1562 39.1921 12.1562 40.4189C12.1562 41.6458 13.2022 42.6565 14.4285 42.6565ZM14.4285 55.4678H46.2399C47.5023 55.4678 48.5124 54.4571 48.5124 53.194C48.5124 51.9671 47.5023 50.9926 46.2399 50.9926H14.4285C13.1661 50.9926 12.1562 51.9671 12.1562 53.194C12.1562 54.4571 13.1661 55.4678 14.4285 55.4678ZM14.4285 68.9646H30.4425C31.6688 68.9646 32.6787 67.9543 32.6787 66.727C32.6787 65.5001 31.7048 64.4898 30.4425 64.4898H14.4285C13.1661 64.4898 12.1562 65.5001 12.1562 66.727C12.1562 67.9543 13.2022 68.9646 14.4285 68.9646Z" fill="white" fill-opacity="0.85"/>
</g>
<defs>
<clipPath id="clip0_2930_65504">
<rect width="62" height="100" fill="white"/>
</clipPath>
</defs>
</svg>
