<svg width="146" height="106" viewBox="0 0 146 106" fill="none" xmlns="http://www.w3.org/2000/svg">
<g clip-path="url(#clip0_1752_456)">
<path d="M40.9193 12.8828L44.1682 15.5446C46.8314 17.8337 49.0152 18.6854 52.6372 18.6854H85.1843C83.7696 21.3511 82.7235 24.2319 82.0892 27.2564H50.3999C45.127 27.2564 42.304 26.2449 38.8424 23.3702L35.5935 20.6552C32.8768 18.3661 30.7465 17.461 27.2314 17.461H15.993C10.8799 17.461 8.11023 20.1761 8.11023 25.4464V89.4351C8.11023 94.972 11.0396 97.7936 16.3658 97.7936H103.608C108.881 97.7936 111.917 94.972 111.917 89.4885V68.3996C113.157 68.5495 114.42 68.6203 115.699 68.6203C117.326 68.6203 118.931 68.502 120.492 68.2333V89.8614C120.492 100.828 114.9 106.364 105.366 106.364H16.2592C5.12761 106.364 -0.464844 100.881 -0.464844 89.8614V24.9673C-0.464844 14.2669 4.91458 8.94336 14.2353 8.94336H29.4146C34.6875 8.94336 37.4042 9.90164 40.9193 12.8828ZM81.3447 34.2834C81.3447 36.9972 81.6632 39.6396 82.2981 42.1623H14.7147V38.9149C14.7147 35.5078 16.4191 33.8576 19.9876 33.8576H81.3665L81.3447 34.2834Z" fill="white" fill-opacity="0.85"/>
<path d="M113.408 61.8067H117.989C119.64 61.8067 120.918 60.7949 121.291 59.1448L122.569 53.8746C123.315 53.6616 124.167 53.3422 124.913 52.9696L129.494 55.7378C130.931 56.5898 132.423 56.5898 133.701 55.3649L136.843 52.171C137.962 50.9466 138.122 49.4028 137.163 47.9122L134.447 43.2807C134.926 42.5354 135.086 41.8966 135.405 41.1513L140.625 39.8736C142.276 39.501 143.341 38.2234 143.341 36.573V32.0481C143.341 30.451 142.223 29.2798 140.625 28.8539L135.459 27.5763C135.086 26.6713 134.767 25.9792 134.5 25.3936L137.376 20.6557C138.228 19.2716 138.068 17.5148 136.95 16.4501L133.701 13.3092C132.529 12.138 130.931 11.8718 129.6 12.7236L124.913 15.6515C124.061 15.2257 123.315 15.0127 122.569 14.7466L121.291 9.42303C120.918 7.82596 119.64 6.70801 117.989 6.70801H113.408C111.757 6.70801 110.426 7.87917 110.106 9.42303L108.881 14.6401C107.976 15.0127 107.23 15.2257 106.431 15.6515L101.851 12.7236C100.572 11.9251 98.8679 12.138 97.6964 13.3092L94.5538 16.4501C93.4352 17.6213 93.1156 19.2716 93.968 20.6557L96.8974 25.3936C96.6312 25.9792 96.3116 26.7778 95.992 27.5763L90.772 28.8539C89.1745 29.2798 88.1094 30.5042 88.1094 32.0481V36.573C88.1094 38.2234 89.1745 39.501 90.772 39.8736L96.0449 41.1513C96.3645 41.8966 96.6312 42.5354 96.9508 43.2807L94.2342 47.9655C93.3823 49.4028 93.4886 50.9999 94.6072 52.171L97.6964 55.3649C98.8679 56.5898 100.519 56.5898 101.904 55.7378L106.538 52.9696C107.443 53.3955 108.189 53.6616 108.881 53.8746L110.106 59.1448C110.426 60.7421 111.757 61.8067 113.408 61.8067ZM115.699 43.1743C110.798 43.1743 106.804 39.1816 106.804 34.2839C106.804 29.4395 110.798 25.4469 115.699 25.4469C120.545 25.4469 124.54 29.4395 124.54 34.2839C124.54 39.1816 120.545 43.1743 115.699 43.1743Z" fill="white" fill-opacity="0.85"/>
</g>
<defs>
<clipPath id="clip0_1752_456">
<rect width="146" height="106" fill="white"/>
</clipPath>
</defs>
</svg>
