<svg width="102" height="100" viewBox="0 0 102 100" fill="none" xmlns="http://www.w3.org/2000/svg">
<g clip-path="url(#clip0_1752_869)">
<path d="M8.03499 8.03122C3.9059 12.1584 0.836976 18.5164 0.669586 23.7032C0.613785 25.5995 1.72975 26.9381 3.57111 26.9381C5.24507 26.9381 6.36103 25.9899 6.69586 24.3167C7.53281 19.5761 9.09519 15.672 12.3315 12.3257C16.07 8.75624 19.5853 7.64081 24.6072 6.58111C26.1695 6.1907 27.1181 5.13106 27.1181 3.68097C27.1181 1.89626 25.8347 0.669271 23.9934 0.669271C19.1389 0.72504 12.4989 3.56943 8.03499 8.03122ZM64.3359 0H35.5995C33.9255 0 32.5306 1.45008 32.5306 3.12325C32.5306 4.79642 33.9255 6.2465 35.5995 6.2465H64.3359C66.0095 6.2465 67.4048 4.79642 67.4048 3.12325C67.4048 1.45008 66.0095 0 64.3359 0ZM91.8443 8.03122C87.4362 3.56943 80.7962 0.72504 75.9418 0.669271C74.0448 0.669271 72.8169 1.89626 72.8169 3.68097C72.8169 5.13106 73.71 6.1907 75.2721 6.58111C80.1265 7.58501 83.8096 8.7005 87.6036 12.3257C90.8399 15.672 92.3466 19.5761 93.2396 24.3167C93.5745 25.9899 94.6344 26.9381 96.3639 26.9381C98.1495 26.9381 99.3214 25.5995 99.2654 23.7032C99.0985 18.5164 96.0291 12.1584 91.8443 8.03122ZM99.935 64.4171V35.6385C99.935 33.9654 98.4843 32.571 96.8108 32.571C95.1366 32.571 93.7413 33.9654 93.7413 35.6385V64.4171C93.7413 66.0904 95.1366 67.5405 96.8108 67.5405C98.4843 67.5405 99.935 66.0904 99.935 64.4171ZM91.8443 91.9131C96.0291 87.7857 99.0985 81.4275 99.2654 76.2407C99.3214 74.2887 98.1495 73.006 96.3639 73.006C94.6344 73.006 93.5745 73.8986 93.2396 75.6274C92.3466 80.3681 90.8399 84.2163 87.6036 87.6184C83.8651 91.1318 80.294 92.3032 75.2721 93.3072C73.71 93.6972 72.8169 94.8132 72.8169 96.2632C72.8169 98.0479 74.0448 99.2187 75.9418 99.2187C80.7962 99.2187 87.4362 96.3746 91.8443 91.9131ZM35.5995 99.8881H64.3359C66.0095 99.8881 67.4048 98.494 67.4048 96.8206C67.4048 95.1479 66.0095 93.6972 64.3359 93.6972H35.5995C33.9255 93.6972 32.5306 95.1479 32.5306 96.8206C32.5306 98.494 33.9255 99.8881 35.5995 99.8881ZM8.03499 91.9131C12.4989 96.3746 19.1389 99.2187 23.9934 99.2187C25.8347 99.2187 27.1181 98.0479 27.1181 96.2632C27.1181 94.8132 26.1695 93.6972 24.6072 93.3072C19.7527 92.3591 16.1258 91.1878 12.3315 87.6184C9.09519 84.2163 7.53281 80.3681 6.69586 75.6274C6.36103 73.8986 5.24507 73.006 3.57111 73.006C1.72975 73.006 0.613785 74.2887 0.669586 76.2407C0.836976 81.4275 3.9059 87.7857 8.03499 91.9131ZM0 35.6385V64.4171C0 66.0904 1.39497 67.5405 3.12472 67.5405C4.79868 67.5405 6.19362 66.0904 6.19362 64.4171V35.6385C6.19362 33.9654 4.79868 32.571 3.12472 32.571C1.39497 32.571 0 33.9654 0 35.6385Z" fill="white" fill-opacity="0.85"/>
<path d="M34.3167 87.2275H65.6199C72.5387 87.2275 78.3416 86.5581 82.4709 82.4873C86.6557 78.3039 87.2139 72.5037 87.2139 65.5881V34.2997C87.2139 27.3839 86.6557 21.6394 82.4709 17.5123C78.3416 13.3851 72.5387 12.7158 65.6199 12.7158H34.2051C27.3977 12.7158 21.5947 13.3851 17.4655 17.5123C13.3364 21.6394 12.7227 27.4397 12.7227 34.1882V65.5881C12.7227 72.5037 13.3364 78.3039 17.4655 82.4873C21.5947 86.5581 27.3977 87.2275 34.3167 87.2275Z" fill="white" fill-opacity="0.85"/>
</g>
<defs>
<clipPath id="clip0_1752_869">
<rect width="102" height="100" fill="white"/>
</clipPath>
</defs>
</svg>
