<svg width="100" height="100" viewBox="0 0 100 100" fill="none" xmlns="http://www.w3.org/2000/svg">
<g clip-path="url(#clip0_1752_566)">
<path d="M50 69.9185C61.0006 69.9185 69.9187 61.0004 69.9187 49.9998C69.9187 38.999 61.0006 30.0811 50 30.0811V69.9185Z" fill="white"/>
<path fill-rule="evenodd" clip-rule="evenodd" d="M49.9999 0.203125C22.4979 0.203125 0.203125 22.4979 0.203125 49.9999C0.203125 77.5016 22.4979 99.7966 49.9999 99.7966C77.5016 99.7966 99.7966 77.5016 99.7966 49.9999C99.7966 22.4979 77.5016 0.203125 49.9999 0.203125ZM49.9999 10.1625V30.0812C38.9991 30.0812 30.0812 38.9991 30.0812 49.9999C30.0812 61.0005 38.9991 69.9186 49.9999 69.9186V89.8373C72.0016 89.8373 89.8373 72.0016 89.8373 49.9999C89.8373 27.9983 72.0016 10.1625 49.9999 10.1625Z" fill="white"/>
</g>
<defs>
<clipPath id="clip0_1752_566">
<rect width="100" height="100" fill="white"/>
</clipPath>
</defs>
</svg>
