<svg width="133" height="109" viewBox="0 0 133 109" fill="none" xmlns="http://www.w3.org/2000/svg">
<g clip-path="url(#clip0_1752_405)">
<path d="M98.8795 15.2192L100.076 21.9516H46.2903C32.6896 21.9516 24.8155 29.7272 24.8155 43.0973V87.8065C24.8155 87.8366 24.8156 87.8667 24.8189 87.8949C18.2713 87.4312 14.3602 83.3438 13.0284 75.6691L5.15429 31.6236C3.48402 21.999 7.54036 16.3096 17.371 14.5554L81.5567 3.31877C91.3873 1.61194 97.1614 5.59452 98.8795 15.2192Z" fill="white"/>
<path d="M62.9917 66.3289C57.4081 66.3289 52.8269 61.7297 52.8269 56.1829C52.8269 50.6832 57.4081 46.0366 62.9917 46.0366C68.5752 46.0366 73.1565 50.6832 73.1565 56.1829C73.1565 61.7297 68.5752 66.3289 62.9917 66.3289ZM44.5236 95.8665C40.4195 95.8665 37.7948 93.2589 37.7948 89.1812V87.0479L49.9638 76.1908C51.7772 74.5784 53.6386 73.8201 55.4994 73.8201C57.5992 73.8201 59.6037 74.626 61.3693 76.2379L69.1479 83.2077L88.4753 66.0919C90.5272 64.3378 92.5791 63.579 95.0132 63.579C97.3514 63.579 99.5465 64.4325 101.455 66.139L120.019 83.3499V89.2288C120.019 93.3065 117.347 95.8665 113.386 95.8665H44.5236ZM46.2893 102.504H111.477C121.451 102.504 126.461 97.5735 126.461 87.8063V43.0971C126.461 33.3302 121.451 28.3994 111.477 28.3994H46.2893C36.3154 28.3994 31.3047 33.3302 31.3047 43.0971V87.8063C31.3047 97.6206 36.3154 102.504 46.2893 102.504Z" fill="white"/>
</g>
<defs>
<clipPath id="clip0_1752_405">
<rect width="133" height="109" fill="white"/>
</clipPath>
</defs>
</svg>
