<svg width="120" height="100" viewBox="0 0 120 100" fill="none" xmlns="http://www.w3.org/2000/svg">
<g clip-path="url(#clip0_2930_65515)">
<path d="M84.9398 12.1507C89.3001 16.3443 91.5271 22.589 91.5271 30.5659V46.0508C90.301 45.8701 89.0441 45.7903 87.7696 45.7903C86.5112 45.7903 85.27 45.8687 84.0582 46.0461V30.5659C84.0582 24.8225 82.4811 20.4466 79.4656 17.5294C76.5432 14.6577 72.0432 13.0623 66.2445 13.0623H31.267C25.4681 13.0623 20.9219 14.7033 18.0457 17.5294C15.0304 20.4466 13.4531 24.8225 13.4531 30.5659V64.8893C13.4531 70.6328 15.0304 75.0086 18.0457 77.9259C20.9683 80.7974 25.4681 82.3928 31.267 82.3928H58.8564C59.4995 85.0067 60.5318 87.4712 61.8856 89.7317H31.267C23.1022 89.7317 16.7468 87.4525 12.5717 83.3044C8.25749 79.111 5.98438 72.8662 5.98438 64.8893V30.5659C5.98438 22.589 8.25749 16.3443 12.5717 12.1507C16.7468 8.04834 23.1022 5.72363 31.267 5.72363H66.2445C74.4094 5.72363 80.7182 8.00273 84.9398 12.1507Z" fill="white" fill-opacity="0.85"/>
<path d="M111.335 75.1443C111.335 87.816 100.573 98.2999 87.7694 98.2999C74.8728 98.2999 64.2031 87.907 64.2031 75.1443C64.2031 62.4722 74.8728 51.9883 87.7694 51.9883C100.712 51.9883 111.335 62.4722 111.335 75.1443ZM96.3979 64.8882L85.0788 80.295L79.3728 74.2327C78.9087 73.731 78.1667 73.2754 77.1463 73.2754C75.5687 73.2754 74.27 74.5063 74.27 76.1469C74.27 76.785 74.5018 77.6056 75.0585 78.1983L82.8984 86.6766C83.5013 87.3147 84.4295 87.6339 85.218 87.6339C86.2384 87.6339 87.1661 87.2236 87.6302 86.5851L101.13 68.17C101.547 67.5776 101.779 66.9849 101.779 66.4378C101.779 64.8424 100.387 63.612 98.8566 63.612C97.7897 63.612 96.9546 64.1591 96.3979 64.8882Z" fill="white" fill-opacity="0.85"/>
</g>
<defs>
<clipPath id="clip0_2930_65515">
<rect width="120" height="100" fill="white"/>
</clipPath>
</defs>
</svg>
