<svg width="51" height="50" viewBox="0 0 51 50" fill="none" xmlns="http://www.w3.org/2000/svg">
<g clip-path="url(#clip0_4048_900)">
<path d="M25.0458 49.9757C38.8701 49.9757 50.0915 38.7801 50.0915 24.9878C50.0915 11.1955 38.8701 0 25.0458 0C11.2215 0 0 11.1955 0 24.9878C0 38.7801 11.2215 49.9757 25.0458 49.9757ZM25.0458 45.8109C13.505 45.8109 4.1743 36.5018 4.1743 24.9878C4.1743 13.4738 13.505 4.16464 25.0458 4.16464C36.5865 4.16464 45.9171 13.4738 45.9171 24.9878C45.9171 36.5018 36.5865 45.8109 25.0458 45.8109Z" fill="black"/>
<path d="M25.0211 37.2609C30.1531 37.2609 33.5907 33.8558 33.5907 32.239C33.5907 31.651 33.026 31.3816 32.5103 31.6264C30.7178 32.6062 28.5816 33.7088 25.0211 33.7088C21.4607 33.7088 19.3244 32.5819 17.5565 31.6264C17.0163 31.3816 16.4515 31.651 16.4515 32.239C16.4515 33.8558 19.8892 37.2609 25.0211 37.2609ZM17.7529 22.8072C19.2999 22.8072 20.6749 21.4109 20.6749 19.451C20.6749 17.4667 19.3244 16.0703 17.7529 16.0703C16.206 16.0703 14.8555 17.4667 14.8555 19.451C14.8555 21.4109 16.206 22.8072 17.7529 22.8072ZM32.3139 22.8072C33.8608 22.8072 35.2359 21.4109 35.2359 19.451C35.2359 17.4667 33.8854 16.0703 32.3139 16.0703C30.7668 16.0703 29.4163 17.4667 29.4163 19.451C29.4163 21.4109 30.7668 22.8072 32.3139 22.8072Z" fill="black"/>
</g>
<defs>
<clipPath id="clip0_4048_900">
<rect width="51" height="50" fill="white"/>
</clipPath>
</defs>
</svg>
