<svg width="126" height="100" viewBox="0 0 126 100" fill="none" xmlns="http://www.w3.org/2000/svg">
<g clip-path="url(#clip0_1752_415)">
<path d="M17.1421 99.2949H108.476C118.247 99.2949 123.98 93.6521 123.98 82.4747V26.7499C123.98 15.5725 118.193 9.92949 106.838 9.92949H54.4289C50.7166 9.92949 48.4783 9.06134 45.7486 6.72819L42.4185 4.0152C38.8154 0.97667 36.0311 0 30.6265 0H15.0676C5.51386 0 0 5.42595 0 16.3321V82.4747C0 93.706 5.73222 99.2949 17.1421 99.2949ZM17.2513 90.559C11.792 90.559 8.78944 87.6831 8.78944 82.0402V16.8204C8.78944 11.4488 11.6282 8.68152 16.8691 8.68152H28.3881C31.9913 8.68152 34.175 9.60396 36.9592 11.9371L40.2893 14.7043C43.8379 17.6344 46.7313 18.6653 52.1359 18.6653H106.674C112.079 18.6653 115.191 21.5953 115.191 27.2383V82.0947C115.191 87.6831 112.079 90.559 106.674 90.559H17.2513ZM15.5589 33.8579H108.367V30.5481C108.367 27.0755 106.62 25.3934 102.962 25.3934H20.9636C17.3058 25.3934 15.5589 27.0755 15.5589 30.5481V33.8579Z" fill="white"/>
</g>
<defs>
<clipPath id="clip0_1752_415">
<rect width="126" height="100" fill="white"/>
</clipPath>
</defs>
</svg>
