<svg width="120" height="100" viewBox="0 0 120 100" fill="none" xmlns="http://www.w3.org/2000/svg">
<g clip-path="url(#clip0_2930_65497)">
<path d="M16.9695 70.9816V75.7148C16.9695 80.1535 19.2932 82.4156 23.4426 82.4156H57.4709L64.1303 89.2873H23.3181C14.6874 89.2873 10.2891 84.891 10.2891 76.099V65.887C12.2769 67.8777 14.5235 69.5914 16.9695 70.9816ZM108.173 23.9438V76.099C108.173 84.891 103.816 89.2873 95.1439 89.2873H89.4532C89.4588 89.2458 89.4592 89.2025 89.4592 89.1592C89.4592 86.6611 88.6289 84.2578 87.2034 82.4156H95.0194C99.1273 82.4156 101.492 80.1535 101.492 75.7148V24.3279C101.492 19.8891 99.1273 17.5844 95.0194 17.5844H56.8671C54.234 14.7611 51.1208 12.4202 47.652 10.7129H95.1439C103.816 10.7129 108.173 15.1517 108.173 23.9438Z" fill="white" fill-opacity="0.85"/>
<path d="M92.6957 40.9308C92.6957 46.6074 88.2143 51.1741 82.7786 51.1741C77.2601 51.1741 72.8203 46.6074 72.8203 40.9308C72.8203 35.2543 77.2601 30.6875 82.7786 30.6875C88.2143 30.6875 92.6957 35.2543 92.6957 40.9308Z" fill="white" fill-opacity="0.85"/>
<path d="M33.112 75.3304C51.3691 75.3304 66.2239 60.0509 66.2239 41.2717C66.2239 22.4497 51.3691 7.21289 33.112 7.21289C14.8548 7.21289 0 22.4497 0 41.2717C0 60.0509 14.8548 75.3304 33.112 75.3304ZM33.112 68.0322C18.7552 68.0322 7.09542 56.0393 7.09542 41.2717C7.09542 26.4617 18.7552 14.5112 33.112 14.5112C47.469 14.5112 59.1285 26.4617 59.1285 41.2717C59.1285 56.0393 47.469 68.0322 33.112 68.0322ZM56.7636 59.155L49.7094 66.1542L75.5185 92.7441C76.5144 93.7685 77.7177 94.1951 79.0043 94.1951C81.8256 94.1951 83.8175 92.0186 83.8175 89.159C83.8175 87.7932 83.2779 86.5555 82.4481 85.6591L56.7636 59.155Z" fill="white" fill-opacity="0.85"/>
<path d="M19.7107 38.5407H46.4742C48.1339 38.5407 49.3788 37.2176 49.3788 35.5531C49.3788 33.8885 48.1339 32.5654 46.4742 32.5654H19.7107C18.051 32.5654 16.8477 33.8885 16.8477 35.5531C16.8477 37.2176 18.051 38.5407 19.7107 38.5407ZM19.7107 49.9364H39.2958C40.9141 49.9364 42.2419 48.6558 42.2419 46.9916C42.2419 45.284 40.9141 43.9611 39.2958 43.9611H19.7107C18.051 43.9611 16.8477 45.284 16.8477 46.9916C16.8477 48.6558 18.051 49.9364 19.7107 49.9364Z" fill="white" fill-opacity="0.85"/>
</g>
<defs>
<clipPath id="clip0_2930_65497">
<rect width="120" height="100" fill="white"/>
</clipPath>
</defs>
</svg>
