<svg width="104" height="100" viewBox="0 0 104 100" fill="none" xmlns="http://www.w3.org/2000/svg">
<g clip-path="url(#clip0_1752_716)">
<path d="M81.5672 99.7924H93.0707C98.7447 99.7924 102.076 96.4678 102.076 90.5972V79.5326C102.076 73.6626 98.7447 70.3379 93.0707 70.3379H81.5672C75.8938 70.3379 72.5625 73.6626 72.5625 79.5326V90.5972C72.5625 96.4678 75.8938 99.7924 81.5672 99.7924ZM82.5565 92.6234C80.6824 92.6234 79.6937 91.6366 79.6937 89.7141V80.4157C79.6937 78.4416 80.6824 77.4543 82.5565 77.4543H92.082C93.9038 77.4543 94.8926 78.4416 94.8926 80.4157V89.7141C94.8926 91.6366 93.9038 92.6234 92.082 92.6234H82.5565Z" fill="white" fill-opacity="0.85"/>
<path d="M45.2342 99.7924H56.7898C62.4637 99.7924 65.7428 96.4678 65.7428 90.5972V79.5326C65.7428 73.6626 62.4637 70.3379 56.7898 70.3379H45.2342C39.5606 70.3379 36.2812 73.6626 36.2812 79.5326V90.5972C36.2812 96.4678 39.5606 99.7924 45.2342 99.7924ZM46.2232 92.6234C44.3493 92.6234 43.4124 91.6366 43.4124 89.7141V80.4157C43.4124 78.4416 44.3493 77.4543 46.2232 77.4543H55.8011C57.6224 77.4543 58.6116 78.4416 58.6116 80.4157V89.7141C58.6116 91.6366 57.6224 92.6234 55.8011 92.6234H46.2232Z" fill="white" fill-opacity="0.85"/>
<path d="M9.005 99.7924H20.5085C26.1822 99.7924 29.5135 96.4678 29.5135 90.5972V79.5326C29.5135 73.6626 26.1822 70.3379 20.5085 70.3379H9.005C3.33133 70.3379 0 73.6626 0 79.5326V90.5972C0 96.4678 3.33133 99.7924 9.005 99.7924ZM9.994 92.6234C8.12014 92.6234 7.18321 91.6366 7.18321 89.7141V80.4157C7.18321 78.4416 8.12014 77.4543 9.994 77.4543H19.5195C21.3414 77.4543 22.3824 78.4416 22.3824 80.4157V89.7141C22.3824 91.6366 21.3414 92.6234 19.5195 92.6234H9.994Z" fill="white" fill-opacity="0.85"/>
<path d="M81.5672 64.7788H93.0707C98.7447 64.7788 102.076 61.4541 102.076 55.5841V44.5192C102.076 38.6491 98.7447 35.2725 93.0707 35.2725H81.5672C75.8938 35.2725 72.5625 38.6491 72.5625 44.5192V55.5841C72.5625 61.4541 75.8938 64.7788 81.5672 64.7788Z" fill="white" fill-opacity="0.85"/>
<path d="M45.2342 64.6233H56.7898C62.4637 64.6233 65.7428 61.3508 65.7428 55.4807V44.3637C65.7428 38.4936 62.4637 35.1689 56.7898 35.1689H45.2342C39.5606 35.1689 36.2812 38.4936 36.2812 44.3637V55.4807C36.2812 61.3508 39.5606 64.6233 45.2342 64.6233ZM46.2232 57.5064C44.3493 57.5064 43.4124 56.5196 43.4124 54.5456V45.1949C43.4124 43.2729 44.3493 42.2858 46.2232 42.2858H55.8011C57.6224 42.2858 58.6116 43.2729 58.6116 45.1949V54.5456C58.6116 56.5196 57.6224 57.5064 55.8011 57.5064H46.2232Z" fill="white" fill-opacity="0.85"/>
<path d="M9.005 64.6233H20.5085C26.1822 64.6233 29.5135 61.3508 29.5135 55.4807V44.3637C29.5135 38.4936 26.1822 35.1689 20.5085 35.1689H9.005C3.33133 35.1689 0 38.4936 0 44.3637V55.4807C0 61.3508 3.33133 64.6233 9.005 64.6233ZM9.994 57.5064C8.12014 57.5064 7.18321 56.5196 7.18321 54.5456V45.1949C7.18321 43.2729 8.12014 42.2858 9.994 42.2858H19.5195C21.3414 42.2858 22.3824 43.2729 22.3824 45.1949V54.5456C22.3824 56.5196 21.3414 57.5064 19.5195 57.5064H9.994Z" fill="white" fill-opacity="0.85"/>
<path d="M81.5672 29.4546H93.0707C98.7447 29.4546 102.076 26.1299 102.076 20.2598V9.19484C102.076 3.32468 98.7447 0 93.0707 0H81.5672C75.8938 0 72.5625 3.32468 72.5625 9.19484V20.2598C72.5625 26.1299 75.8938 29.4546 81.5672 29.4546ZM82.5565 22.3377C80.6824 22.3377 79.6937 21.3507 79.6937 19.3767V10.0779C79.6937 8.15584 80.6824 7.16886 82.5565 7.16886H92.082C93.9038 7.16886 94.8926 8.15584 94.8926 10.0779V19.3767C94.8926 21.3507 93.9038 22.3377 92.082 22.3377H82.5565Z" fill="white" fill-opacity="0.85"/>
<path d="M45.2342 29.4546H56.7898C62.4637 29.4546 65.7428 26.1299 65.7428 20.2598V9.19484C65.7428 3.32468 62.4637 0 56.7898 0H45.2342C39.5606 0 36.2812 3.32468 36.2812 9.19484V20.2598C36.2812 26.1299 39.5606 29.4546 45.2342 29.4546ZM46.2232 22.3377C44.3493 22.3377 43.4124 21.3507 43.4124 19.3767V10.0779C43.4124 8.15584 44.3493 7.16886 46.2232 7.16886H55.8011C57.6224 7.16886 58.6116 8.15584 58.6116 10.0779V19.3767C58.6116 21.3507 57.6224 22.3377 55.8011 22.3377H46.2232Z" fill="white" fill-opacity="0.85"/>
<path d="M9.005 29.4546H20.5085C26.1822 29.4546 29.5135 26.1299 29.5135 20.2598V9.19484C29.5135 3.32468 26.1822 0 20.5085 0H9.005C3.33133 0 0 3.32468 0 9.19484V20.2598C0 26.1299 3.33133 29.4546 9.005 29.4546ZM9.994 22.3377C8.12014 22.3377 7.18321 21.3507 7.18321 19.3767V10.0779C7.18321 8.15584 8.12014 7.16886 9.994 7.16886H19.5195C21.3414 7.16886 22.3824 8.15584 22.3824 10.0779V19.3767C22.3824 21.3507 21.3414 22.3377 19.5195 22.3377H9.994Z" fill="white" fill-opacity="0.85"/>
</g>
<defs>
<clipPath id="clip0_1752_716">
<rect width="104" height="100" fill="white"/>
</clipPath>
</defs>
</svg>
