<svg width="131" height="100" viewBox="0 0 131 100" fill="none" xmlns="http://www.w3.org/2000/svg">
<g clip-path="url(#clip0_1752_685)">
<path d="M17.1749 100H111.801C123.287 100 128.976 94.4055 128.976 83.2155V16.8387C128.976 5.64908 123.287 0 111.801 0H17.1749C5.74321 0 0 5.64908 0 16.8387V83.2155C0 94.4055 5.74321 100 17.1749 100ZM17.2843 91.2546C11.8146 91.2546 8.80628 88.3761 8.80628 82.7266V17.3275C8.80628 11.6784 11.8146 8.74528 17.2843 8.74528H111.692C117.107 8.74528 120.17 11.6784 120.17 17.3275V82.7266C120.17 88.3761 117.107 91.2546 111.692 91.2546H17.2843Z" fill="white" fill-opacity="0.85"/>
<path d="M19.1863 89H109.814C115.602 89 118 86.5225 118 80.3707V19.7141C118 13.563 115.602 11 109.814 11H19.1863C13.4807 11 11 13.563 11 19.7141V80.3707C11 86.5225 13.4807 89 19.1863 89Z" fill="white" fill-opacity="0.38"/>
</g>
<defs>
<clipPath id="clip0_1752_685">
<rect width="131" height="100" fill="white"/>
</clipPath>
</defs>
</svg>
