<svg width="129" height="99" viewBox="0 0 129 99" fill="none" xmlns="http://www.w3.org/2000/svg">
<path d="M28.1173 38V9.81641H33.1564V21.5352H46.8673V9.81641H51.8869V38H46.8673V25.7734H33.1564V38H28.1173ZM56.2058 38V17.2969H61.0691V38H56.2058ZM58.6277 14.3281C57.8724 14.3281 57.2344 14.0677 56.7136 13.5469C56.1928 13.026 55.9323 12.401 55.9323 11.6719C55.9323 10.9297 56.1928 10.3047 56.7136 9.79688C57.2344 9.27604 57.8724 9.01562 58.6277 9.01562C59.3959 9.01562 60.0404 9.27604 60.5612 9.79688C61.0821 10.3047 61.3425 10.9297 61.3425 11.6719C61.3425 12.401 61.0821 13.026 60.5612 13.5469C60.0404 14.0677 59.3959 14.3281 58.6277 14.3281ZM72.595 38.4102C70.8502 38.4102 69.3333 37.9805 68.0442 37.1211C66.7682 36.2487 65.7786 35.0052 65.0755 33.3906C64.3854 31.776 64.0403 29.862 64.0403 27.6484V27.6289C64.0403 25.4023 64.3919 23.4883 65.095 21.8867C65.7981 20.2721 66.7877 19.0352 68.0638 18.1758C69.3398 17.3034 70.8437 16.8672 72.5755 16.8672C73.5651 16.8672 74.47 17.0299 75.2903 17.3555C76.1236 17.668 76.8593 18.1237 77.4973 18.7227C78.1354 19.3086 78.6497 20.0182 79.0403 20.8516H79.1575V9.81641H84.0013V38H79.1575V34.4844H79.0403C78.6627 35.3047 78.1549 36.0078 77.5169 36.5938C76.8919 37.1667 76.1627 37.6159 75.3294 37.9414C74.5091 38.2539 73.5976 38.4102 72.595 38.4102ZM74.0598 34.3281C75.0624 34.3281 75.9479 34.0547 76.7161 33.5078C77.4843 32.9609 78.0833 32.1862 78.513 31.1836C78.9427 30.181 79.1575 29.0026 79.1575 27.6484V27.6289C79.1575 26.2747 78.9361 25.1029 78.4934 24.1133C78.0638 23.1107 77.4648 22.3359 76.6966 21.7891C75.9414 21.2422 75.0624 20.9688 74.0598 20.9688C73.0182 20.9688 72.1132 21.2422 71.345 21.7891C70.5898 22.3229 70.0039 23.0846 69.5872 24.0742C69.1835 25.0638 68.9817 26.2487 68.9817 27.6289V27.6484C68.9817 29.0156 69.1835 30.2005 69.5872 31.2031C70.0039 32.2057 70.5898 32.9805 71.345 33.5273C72.1132 34.0612 73.0182 34.3281 74.0598 34.3281ZM96.8944 38.4102C94.8241 38.4102 93.0402 37.974 91.5428 37.1016C90.0584 36.2292 88.9191 34.9922 88.1248 33.3906C87.3306 31.7891 86.9334 29.8945 86.9334 27.707V27.6875C86.9334 25.513 87.3306 23.6185 88.1248 22.0039C88.9321 20.3763 90.0584 19.1133 91.5038 18.2148C92.9621 17.3164 94.6808 16.8672 96.66 16.8672C98.6261 16.8672 100.325 17.3034 101.758 18.1758C103.203 19.0352 104.31 20.2461 105.078 21.8086C105.859 23.3711 106.25 25.194 106.25 27.2773V28.8398H89.3358V25.5977H103.926L101.582 28.625V26.75C101.582 25.3958 101.374 24.2695 100.957 23.3711C100.54 22.4727 99.9673 21.8021 99.2381 21.3594C98.509 20.9036 97.6691 20.6758 96.7186 20.6758C95.7551 20.6758 94.8957 20.9102 94.1405 21.3789C93.3983 21.8346 92.8123 22.5182 92.3827 23.4297C91.966 24.3411 91.7577 25.4479 91.7577 26.75V28.625C91.7577 29.888 91.966 30.9688 92.3827 31.8672C92.8123 32.7526 93.4178 33.4362 94.1991 33.918C94.9803 34.3867 95.9113 34.6211 96.992 34.6211C97.7993 34.6211 98.509 34.4974 99.1209 34.25C99.7329 33.9896 100.234 33.6576 100.625 33.2539C101.028 32.8503 101.308 32.4141 101.465 31.9453L101.504 31.8086H106.035L105.996 32.0234C105.827 32.8177 105.514 33.599 105.058 34.3672C104.603 35.1224 103.991 35.806 103.223 36.418C102.454 37.0299 101.543 37.5182 100.488 37.8828C99.4334 38.2344 98.2355 38.4102 96.8944 38.4102Z" fill="white"/>
<path d="M28.6227 86V62.0547H20.1852V57.8164H42.0602V62.0547H33.6422V86H28.6227ZM43.9572 86V65.2969H48.8205V86H43.9572ZM46.3791 62.3281C45.6239 62.3281 44.9858 62.0677 44.465 61.5469C43.9442 61.026 43.6838 60.401 43.6838 59.6719C43.6838 58.9297 43.9442 58.3047 44.465 57.7969C44.9858 57.276 45.6239 57.0156 46.3791 57.0156C47.1473 57.0156 47.7918 57.276 48.3127 57.7969C48.8335 58.3047 49.0939 58.9297 49.0939 59.6719C49.0939 60.401 48.8335 61.026 48.3127 61.5469C47.7918 62.0677 47.1473 62.3281 46.3791 62.3281ZM60.3269 86.4102C58.1784 86.4102 56.5769 85.9414 55.5222 85.0039C54.4805 84.0664 53.9597 82.5299 53.9597 80.3945V69.0469H51.03V65.2969H53.9597V60.043H58.9011V65.2969H62.7488V69.0469H58.9011V80.0039C58.9011 81.0065 59.1224 81.7031 59.5652 82.0938C60.0209 82.4714 60.6849 82.6602 61.5573 82.6602C61.8047 82.6602 62.0196 82.6536 62.2019 82.6406C62.3972 82.6146 62.5795 82.5951 62.7488 82.582V86.2344C62.4623 86.2734 62.1107 86.3125 61.6941 86.3516C61.2904 86.3906 60.8347 86.4102 60.3269 86.4102ZM65.9153 86V57.8164H70.7786V86H65.9153ZM83.7108 86.4102C81.6405 86.4102 79.8566 85.974 78.3592 85.1016C76.8748 84.2292 75.7355 82.9922 74.9412 81.3906C74.147 79.7891 73.7498 77.8945 73.7498 75.707V75.6875C73.7498 73.513 74.147 71.6185 74.9412 70.0039C75.7485 68.3763 76.8748 67.1133 78.3202 66.2148C79.7785 65.3164 81.4972 64.8672 83.4764 64.8672C85.4426 64.8672 87.1418 65.3034 88.5741 66.1758C90.0194 67.0352 91.1261 68.2461 91.8944 69.8086C92.6756 71.3711 93.0662 73.194 93.0662 75.2773V76.8398H76.1522V73.5977H90.742L88.3983 76.625V74.75C88.3983 73.3958 88.1899 72.2695 87.7733 71.3711C87.3566 70.4727 86.7837 69.8021 86.0545 69.3594C85.3254 68.9036 84.4855 68.6758 83.535 68.6758C82.5715 68.6758 81.7121 68.9102 80.9569 69.3789C80.2147 69.8346 79.6287 70.5182 79.1991 71.4297C78.7824 72.3411 78.5741 73.4479 78.5741 74.75V76.625C78.5741 77.888 78.7824 78.9688 79.1991 79.8672C79.6287 80.7526 80.2342 81.4362 81.0155 81.918C81.7967 82.3867 82.7277 82.6211 83.8084 82.6211C84.6157 82.6211 85.3254 82.4974 85.9373 82.25C86.5493 81.9896 87.0506 81.6576 87.4412 81.2539C87.8449 80.8503 88.1248 80.4141 88.2811 79.9453L88.3202 79.8086H92.8514L92.8123 80.0234C92.6431 80.8177 92.3306 81.599 91.8748 82.3672C91.4191 83.1224 90.8071 83.806 90.0389 84.418C89.2707 85.0299 88.3592 85.5182 87.3045 85.8828C86.2498 86.2344 85.0519 86.4102 83.7108 86.4102ZM103.948 86.4102C102.138 86.4102 100.588 86.1432 99.2992 85.6094C98.0232 85.0755 97.0206 84.3268 96.2914 83.3633C95.5753 82.3867 95.1391 81.2604 94.9828 79.9844L94.9633 79.8086H99.7484L99.7875 79.9844C99.9698 80.8828 100.399 81.5794 101.077 82.0742C101.767 82.569 102.73 82.8164 103.967 82.8164C104.761 82.8164 105.439 82.7188 105.998 82.5234C106.558 82.3281 106.988 82.0417 107.287 81.6641C107.6 81.2865 107.756 80.8438 107.756 80.3359V80.3164C107.756 79.7044 107.548 79.2096 107.131 78.832C106.715 78.4414 105.966 78.1224 104.885 77.875L101.448 77.1133C100.133 76.8138 99.0323 76.4036 98.1469 75.8828C97.2615 75.362 96.5974 74.7174 96.1547 73.9492C95.712 73.168 95.4906 72.263 95.4906 71.2344V71.2148C95.4906 69.9518 95.8357 68.8451 96.5258 67.8945C97.2159 66.944 98.1859 66.2018 99.4359 65.668C100.686 65.1341 102.138 64.8672 103.791 64.8672C105.51 64.8672 106.982 65.1536 108.205 65.7266C109.429 66.2995 110.373 67.0677 111.037 68.0312C111.715 68.9948 112.079 70.0755 112.131 71.2734L112.151 71.4883H107.62L107.6 71.332C107.496 70.4987 107.118 69.8151 106.467 69.2812C105.816 68.7344 104.924 68.4609 103.791 68.4609C103.075 68.4609 102.45 68.5651 101.916 68.7734C101.396 68.9818 100.992 69.2747 100.705 69.6523C100.432 70.0299 100.295 70.4727 100.295 70.9805V71C100.295 71.3906 100.393 71.7422 100.588 72.0547C100.784 72.3672 101.096 72.6406 101.526 72.875C101.955 73.0964 102.528 73.2917 103.245 73.4609L106.682 74.2227C108.83 74.7044 110.36 75.3945 111.272 76.293C112.183 77.1784 112.639 78.3698 112.639 79.8672V79.8867C112.639 81.1888 112.268 82.3346 111.526 83.3242C110.784 84.3008 109.755 85.0625 108.44 85.6094C107.138 86.1432 105.64 86.4102 103.948 86.4102Z" fill="#565656"/>
<path d="M19.2477 73.4023H113.733V76.6055H19.2477V73.4023Z" fill="#565656"/>
<rect y="46" width="5" height="15" rx="2.5" fill="#D9D9D9"/>
<rect y="51" width="5" height="15" rx="2.5" transform="rotate(-90 0 51)" fill="#D9D9D9"/>
<rect width="5" height="15" rx="2.5" transform="matrix(-1 0 0 1 129 46)" fill="#D9D9D9"/>
<rect width="5" height="15" rx="2.5" transform="matrix(0 -1 -1 0 129 51)" fill="#D9D9D9"/>
<rect y="99" width="5" height="15" rx="2.5" transform="rotate(-90 0 99)" fill="#D9D9D9"/>
<rect x="5" y="99" width="5" height="15" rx="2.5" transform="rotate(-180 5 99)" fill="#D9D9D9"/>
<rect width="5" height="15" rx="2.5" transform="matrix(0 -1 -1 0 129 99)" fill="#D9D9D9"/>
<rect width="5" height="15" rx="2.5" transform="matrix(1 0 0 -1 124 99)" fill="#D9D9D9"/>
</svg>
