<svg width="127" height="99" viewBox="0 0 127 99" fill="none" xmlns="http://www.w3.org/2000/svg">
<g clip-path="url(#clip0_1752_479)">
<path d="M28.629 28.1595C16.0568 36.23 8.02344 46.3735 8.02344 49.5224C8.02344 56.0303 32.4606 81.7841 62.6746 81.7841C68.5028 81.7841 74.1226 80.8171 79.3856 79.1932L85.326 85.1661C78.463 87.6095 70.8479 89.0765 62.6746 89.0765C26.0877 89.0765 0 58.9379 0 49.5224C0 44.087 8.6249 31.8427 22.9238 22.4232L28.629 28.1595ZM125.304 49.5224C125.304 54.7859 117.308 66.5257 103.774 75.8518L98.1716 70.2159C109.869 62.4915 117.28 53.0997 117.28 49.5224C117.28 44.0302 92.7514 17.261 62.6746 17.261C57.4737 17.261 52.4436 18.0543 47.6989 19.4371L41.6726 13.3743C48.1234 11.2346 55.1802 9.96875 62.6746 9.96875C99.6744 9.96875 125.304 40.061 125.304 49.5224ZM73.2456 73.0194C70.0296 74.5063 66.4474 75.3225 62.6746 75.3225C48.4619 75.3225 36.9079 63.7377 36.9079 49.4303C36.9079 45.6331 37.7217 42.0277 39.2028 38.791L73.2456 73.0194ZM88.3955 49.4303C88.3955 52.6866 87.7992 55.8021 86.6851 58.6595L53.4901 25.2635C56.3352 24.1395 59.4361 23.5379 62.6746 23.5379C76.8879 23.5379 88.3955 35.1225 88.3955 49.4303Z" fill="white" fill-opacity="0.85"/>
<path d="M98.4829 89.4917C99.904 90.9228 102.059 91.015 103.48 89.4917C104.993 87.969 104.902 85.8918 103.48 84.4612L26.8218 7.33823C25.4463 5.95366 23.1998 5.95366 21.7784 7.33823C20.4489 8.67673 20.4489 11.0305 21.7784 12.369L98.4829 89.4917Z" fill="white" fill-opacity="0.85"/>
</g>
<defs>
<clipPath id="clip0_1752_479">
<rect width="127" height="99" fill="white"/>
</clipPath>
</defs>
</svg>
