<svg width="102" height="100" viewBox="0 0 102 100" fill="none" xmlns="http://www.w3.org/2000/svg">
<path d="M17.0544 100H82.9362C94.3421 100 99.9906 94.4055 99.9906 83.2155V16.8387C99.9906 5.64908 94.3421 0 82.9362 0H17.0544C5.70289 0 0 5.64908 0 16.8387V83.2155C0 94.4055 5.70289 100 17.0544 100ZM17.163 91.2546C11.7317 91.2546 8.74445 88.3761 8.74445 82.7266V17.3275C8.74445 11.6784 11.7317 8.74528 17.163 8.74528H82.8278C88.2048 8.74528 91.2459 11.6784 91.2459 17.3275V82.7266C91.2459 88.3761 88.2048 91.2546 82.8278 91.2546H17.163Z" fill="white" fill-opacity="0.85"/>
<line x1="8.35355" y1="65.6464" x2="35.3536" y2="92.6464" stroke="#DADCDF"/>
<line x1="64.3322" y1="7.6263" x2="91.3322" y2="31.6263" stroke="#DADCDF"/>
<g clip-path="url(#clip0_1752_821)">
<path d="M82.3963 61.5572C83.7569 61.024 84.4193 59.4948 83.8464 58.1259L78.046 44.5245L77.2046 45.9825L86.12 46.4802C87.3195 46.5514 87.8924 45.2712 87.033 44.4L69.3096 26.4071C68.5219 25.607 67.3045 26.0515 67.2866 27.1716L67.0002 52.2052C66.9823 53.4321 68.3608 53.9299 69.1664 53.023L74.9131 46.6936L73.2481 46.2669L78.9053 60.1349C79.4782 61.4684 81.0178 62.1262 82.3963 61.5572Z" fill="white" fill-opacity="0.85"/>
</g>
<defs>
<clipPath id="clip0_1752_821">
<rect width="21" height="36" fill="white" transform="translate(67 26)"/>
</clipPath>
</defs>
</svg>
