<svg width="131" height="100" viewBox="0 0 131 100" fill="none" xmlns="http://www.w3.org/2000/svg">
<g clip-path="url(#clip0_2930_65555)">
<path d="M101.473 91.4256C116.981 91.4256 129.1 79.8002 129.1 65.3338C129.1 54.2869 122.886 44.7132 112.872 40.3997C112.975 16.9384 96.4912 0 75.4882 0C61.5716 0 51.6606 7.62757 45.4982 16.8332C32.8656 13.0458 19.1031 22.8827 18.8463 37.6117C7.24068 39.5054 0 50.1314 0 62.9669C0 78.432 13.1976 91.4256 30.7601 91.4256H101.473ZM101.473 82.9562H30.7601C17.8193 82.9562 8.26776 73.6976 8.26776 62.9669C8.26776 52.446 14.4814 44.0819 25.3681 44.0819C26.0871 44.0819 26.3438 43.7137 26.3438 43.0299C26.3438 26.8279 37.744 22.041 48.2713 25.5654C48.8875 25.7759 49.247 25.618 49.5551 25.0394C54.5363 15.9389 62.1879 8.46923 75.4882 8.46923C92.3317 8.46923 103.989 22.1462 104.862 37.7695C105.016 40.1893 104.862 43.0299 104.656 45.5023C104.605 46.1861 104.862 46.5543 105.478 46.7122C114.824 48.8163 120.832 55.8124 120.832 65.3338C120.832 75.1181 112.411 82.9562 101.473 82.9562Z" fill="white" fill-opacity="0.85"/>
<path d="M39.1826 55.0236H54.0233C55.9237 55.0236 56.3859 53.1301 55.3074 51.6572L48.6315 42.136C47.5531 40.6104 45.653 40.4527 44.4719 42.136L37.8988 51.6572C36.8718 53.1301 37.3339 55.0236 39.1826 55.0236ZM66.5022 74.8028C71.9452 74.8028 76.9266 72.8566 80.4698 69.9106C82.4727 68.3324 82.5753 66.1233 81.5483 64.8079C80.5729 63.5458 78.724 63.0723 76.6185 64.5978C73.8967 66.8069 70.456 68.2273 66.5022 68.2273C57.3614 68.2273 49.9666 60.5999 49.9666 51.2364C49.9666 49.4479 48.4774 47.9223 46.7314 47.9223C44.9341 47.9223 43.4962 49.4479 43.4962 51.2364C43.4962 64.2822 53.8182 74.8028 66.5022 74.8028ZM93.8216 47.5015H78.9806C77.0807 47.5015 76.6185 49.3427 77.697 50.8682L84.3726 60.337C85.4512 61.9147 87.351 62.0203 88.5321 60.337L95.1052 50.8682C96.1322 49.3427 95.6705 47.5015 93.8216 47.5015ZM66.5022 27.6699C61.0586 27.6699 56.0778 29.6688 52.5342 32.5621C50.5315 34.1402 50.4288 36.3495 51.4559 37.7172C52.4315 38.9271 54.2804 39.4005 56.3859 37.9277C59.1072 35.7183 62.5478 34.298 66.5022 34.298C75.643 34.298 83.0375 41.8729 83.0375 51.2364C83.0375 53.0776 84.5267 54.5507 86.2725 54.5507C88.0699 54.5507 89.5081 53.0776 89.5081 51.2364C89.5081 38.2433 79.1862 27.6699 66.5022 27.6699Z" fill="white" fill-opacity="0.85"/>
</g>
<defs>
<clipPath id="clip0_2930_65555">
<rect width="131" height="100" fill="white"/>
</clipPath>
</defs>
</svg>
