<svg width="101" height="100" viewBox="0 0 101 100" fill="none" xmlns="http://www.w3.org/2000/svg">
<g clip-path="url(#clip0_1752_747)">
<path d="M4.60551 39.535C7.12248 39.535 9.21103 37.4257 9.21103 34.8838C9.21103 32.3419 7.12248 30.2326 4.60551 30.2326C2.08854 30.2326 0 32.3419 0 34.8838C0 37.4257 2.08854 39.535 4.60551 39.535ZM4.60551 24.3916C7.12248 24.3916 9.21103 22.2824 9.21103 19.7404C9.21103 17.1985 7.12248 15.0893 4.60551 15.0893C2.08854 15.0893 0 17.1985 0 19.7404C0 22.2824 2.08854 24.3916 4.60551 24.3916ZM4.60551 9.30236C7.12248 9.30236 9.21103 7.1931 9.21103 4.65117C9.21103 2.10925 7.12248 0 4.60551 0C2.08854 0 0 2.10925 0 4.65117C0 7.1931 2.08854 9.30236 4.60551 9.30236ZM19.6002 9.30236C22.1171 9.30236 24.2057 7.1931 24.2057 4.65117C24.2057 2.10925 22.1171 0 19.6002 0C17.0832 0 14.9947 2.10925 14.9947 4.65117C14.9947 7.1931 17.0832 9.30236 19.6002 9.30236ZM34.5413 9.30236C37.0582 9.30236 39.1468 7.1931 39.1468 4.65117C39.1468 2.10925 37.0582 0 34.5413 0C32.0243 0 29.9358 2.10925 29.9358 4.65117C29.9358 7.1931 32.0243 9.30236 34.5413 9.30236ZM49.536 9.30236C52.053 9.30236 54.1415 7.1931 54.1415 4.65117C54.1415 2.10925 52.053 0 49.536 0C47.019 0 44.9305 2.10925 44.9305 4.65117C44.9305 7.1931 47.019 9.30236 49.536 9.30236ZM64.477 9.30236C66.9941 9.30236 69.0828 7.1931 69.0828 4.65117C69.0828 2.10925 66.9941 0 64.477 0C61.96 0 59.8718 2.10925 59.8718 4.65117C59.8718 7.1931 61.96 9.30236 64.477 9.30236ZM79.4718 9.30236C81.9889 9.30236 84.0771 7.1931 84.0771 4.65117C84.0771 2.10925 81.9889 0 79.4718 0C76.9548 0 74.866 2.10925 74.866 4.65117C74.866 7.1931 76.9548 9.30236 79.4718 9.30236ZM94.4129 9.30236C96.93 9.30236 99.0182 7.1931 99.0182 4.65117C99.0182 2.10925 96.93 0 94.4129 0C91.8959 0 89.8076 2.10925 89.8076 4.65117C89.8076 7.1931 91.8959 9.30236 94.4129 9.30236ZM94.4129 24.3916C96.93 24.3916 99.0182 22.2824 99.0182 19.7404C99.0182 17.1985 96.93 15.0893 94.4129 15.0893C91.8959 15.0893 89.8076 17.1985 89.8076 19.7404C89.8076 22.2824 91.8959 24.3916 94.4129 24.3916ZM94.4129 39.535C96.93 39.535 99.0182 37.4257 99.0182 34.8838C99.0182 32.3419 96.93 30.2326 94.4129 30.2326C91.8959 30.2326 89.8076 32.3419 89.8076 34.8838C89.8076 37.4257 91.8959 39.535 94.4129 39.535ZM94.4129 54.6242C96.93 54.6242 99.0182 52.515 99.0182 49.9731C99.0182 47.4311 96.93 45.3219 94.4129 45.3219C91.8959 45.3219 89.8076 47.4311 89.8076 49.9731C89.8076 52.515 91.8959 54.6242 94.4129 54.6242ZM94.4129 69.7678C96.93 69.7678 99.0182 67.6584 99.0182 65.1164C99.0182 62.5743 96.93 60.4654 94.4129 60.4654C91.8959 60.4654 89.8076 62.5743 89.8076 65.1164C89.8076 67.6584 91.8959 69.7678 94.4129 69.7678ZM94.4129 84.8571C96.93 84.8571 99.0182 82.7476 99.0182 80.2056C99.0182 77.6636 96.93 75.5546 94.4129 75.5546C91.8959 75.5546 89.8076 77.6636 89.8076 80.2056C89.8076 82.7476 91.8959 84.8571 94.4129 84.8571ZM94.4129 100C96.93 100 99.0182 97.8911 99.0182 95.3491C99.0182 92.8071 96.93 90.6981 94.4129 90.6981C91.8959 90.6981 89.8076 92.8071 89.8076 95.3491C89.8076 97.8911 91.8959 100 94.4129 100ZM79.4718 100C81.9889 100 84.0771 97.8911 84.0771 95.3491C84.0771 92.8071 81.9889 90.6981 79.4718 90.6981C76.9548 90.6981 74.866 92.8071 74.866 95.3491C74.866 97.8911 76.9548 100 79.4718 100ZM64.477 100C66.9941 100 69.0828 97.8911 69.0828 95.3491C69.0828 92.8071 66.9941 90.6981 64.477 90.6981C61.96 90.6981 59.8718 92.8071 59.8718 95.3491C59.8718 97.8911 61.96 100 64.477 100Z" fill="white" fill-opacity="0.85"/>
<path d="M56.2283 28.5019L70.4198 42.8341C72.0797 44.5106 74.5967 43.5912 75.1325 41.1575L78.8812 23.7426C79.3095 21.4711 77.3814 19.5782 75.1857 20.1731L57.8883 23.7967C55.425 24.2835 54.5682 26.7172 56.2283 28.5019Z" fill="white" fill-opacity="0.85"/>
<path d="M4.28419 99.784H49.8573C52.4278 99.784 54.0879 98.1071 54.0879 95.5113V58.3017L50.6606 61.7093C49.4289 62.9532 47.983 63.7645 46.4299 64.197V90.4816C46.4299 91.6712 46.0551 92.05 44.8769 92.05H9.21103C8.08642 92.05 7.65797 91.6712 7.65797 90.4816V54.5161C7.65797 53.3263 8.08642 52.9477 9.21103 52.9477H34.8091C35.1304 51.217 35.9872 49.5404 37.326 48.1883L40.325 45.2137H4.28419C1.71368 45.2137 0 46.8903 0 49.4863V95.5113C0 98.1071 1.71368 99.784 4.28419 99.784ZM46.3764 57.2744L72.0814 31.2602C73.313 30.0704 73.4205 27.9611 72.0814 26.6631C70.7965 25.3651 68.7615 25.3651 67.5298 26.7172L41.7709 52.6773C40.5392 53.9752 40.4856 55.9762 41.7173 57.3286C43.0561 58.5725 45.0911 58.5182 46.3764 57.2744Z" fill="white" fill-opacity="0.85"/>
</g>
<defs>
<clipPath id="clip0_1752_747">
<rect width="101" height="100" fill="white"/>
</clipPath>
</defs>
</svg>
