<svg width="102" height="100" viewBox="0 0 102 100" fill="none" xmlns="http://www.w3.org/2000/svg">
<g clip-path="url(#clip0_1752_650)">
<path d="M17.0544 100H82.9362C94.3421 100 99.9906 94.4055 99.9906 83.2155V16.8387C99.9906 5.64908 94.3421 0 82.9362 0H17.0544C5.70289 0 0 5.64908 0 16.8387V83.2155C0 94.4055 5.70289 100 17.0544 100ZM17.163 91.2546C11.7317 91.2546 8.74445 88.3761 8.74445 82.7266V17.3275C8.74445 11.6784 11.7317 8.74528 17.163 8.74528H82.8278C88.2048 8.74528 91.2459 11.6784 91.2459 17.3275V82.7266C91.2459 88.3761 88.2048 91.2546 82.8278 91.2546H17.163Z" fill="white" fill-opacity="0.85"/>
<path d="M32.3148 79.1416C38.7238 79.1416 43.8292 73.9815 43.8292 67.5716V32.3735C43.8292 25.964 38.7238 20.8037 32.3148 20.8037C25.9058 20.8037 20.7461 25.964 20.7461 32.3735C20.7461 38.8374 25.9602 43.7804 32.3148 43.7804H67.7268C74.0271 43.7804 79.2412 38.8374 79.2412 32.3735C79.2412 25.964 74.0816 20.8037 67.7268 20.8037C61.3181 20.8037 56.1586 25.964 56.1586 32.3735V67.5716C56.1586 73.9815 61.3181 79.1416 67.7268 79.1416C74.0816 79.1416 79.2412 73.9815 79.2412 67.5716C79.2412 61.1078 74.0271 56.1107 67.7268 56.1107H32.3148C25.9602 56.1107 20.7461 61.1078 20.7461 67.5716C20.7461 73.9815 25.9058 79.1416 32.3148 79.1416ZM32.3148 72.8407C29.4905 72.8407 27.0464 70.3961 27.0464 67.5716C27.0464 64.6932 29.4362 62.2486 32.3148 62.2486H67.7268C70.6056 62.2486 72.9409 64.6932 72.9409 67.5716C72.9409 70.3961 70.5511 72.8407 67.7268 72.8407C64.8487 72.8407 62.4043 70.4506 62.4043 67.5716V32.3735C62.4043 29.4404 64.8487 27.0503 67.7268 27.0503C70.5511 27.0503 72.9409 29.4946 72.9409 32.3735C72.9409 35.2524 70.6056 37.6967 67.7268 37.6967H32.3148C29.4362 37.6967 27.0464 35.2524 27.0464 32.3735C27.0464 29.4946 29.4905 27.0503 32.3148 27.0503C35.1391 27.0503 37.5832 29.4404 37.5832 32.3735V67.5716C37.5832 70.4506 35.1391 72.8407 32.3148 72.8407Z" fill="white" fill-opacity="0.85"/>
</g>
<defs>
<clipPath id="clip0_1752_650">
<rect width="102" height="100" fill="white"/>
</clipPath>
</defs>
</svg>
