<svg width="140" height="100" viewBox="0 0 140 100" fill="none" xmlns="http://www.w3.org/2000/svg">
<g clip-path="url(#clip0_2930_65549)">
<path d="M79.4093 18.0865V22.062H77.3427C75.5502 22.062 73.8722 22.2216 72.3305 22.5524V18.305C72.3305 10.616 67.9775 6.59677 60.6343 6.59677H18.7751C11.4321 6.59677 7.07915 10.616 7.07915 18.305V43.6872C7.07915 51.4197 11.4761 55.3954 18.7751 55.3954H23.3919C25.2826 55.3954 26.7776 56.4878 26.7776 58.9339V69.9868L40.9359 57.4049C42.6507 55.8758 43.7499 55.3954 46.1241 55.3954H58.9635V61.9487H45.8603L31.1746 74.4429C28.5364 76.7146 27.0854 77.8943 24.9309 77.8943C21.8969 77.8943 20.1821 75.7537 20.1821 72.4334V61.9487H18.3794C7.34296 61.9487 0 55.3515 0 43.9057V18.0865C0 6.64048 7.34296 0 18.3794 0H61.0301C72.0666 0 79.4093 6.64048 79.4093 18.0865Z" fill="white" fill-opacity="0.85"/>
<path d="M44.3663 15.0722L55.2267 44.0368C56.1061 46.4398 54.831 48.6676 52.2371 48.6676C50.5662 48.6676 49.5549 47.7501 48.8953 45.9155L46.2132 38.2264H33.2859L30.6038 45.9155C29.9882 47.7501 28.9329 48.6676 27.2621 48.6676C24.7118 48.6676 23.3927 46.4398 24.2721 44.0368L35.0887 15.0722C35.8802 12.9315 37.507 11.752 39.7055 11.752C41.9919 11.752 43.5748 12.9315 44.3663 15.0722ZM35.0887 32.8529H44.3663L39.7275 19.41L35.0887 32.8529Z" fill="white" fill-opacity="0.85"/>
<path d="M138.374 40.149V65.9682C138.374 77.3704 131.031 84.011 119.995 84.011H118.148V94.4957C118.148 97.816 116.477 99.9571 113.443 99.9571C111.289 99.9571 109.838 98.7774 107.2 96.5057L92.4698 84.011H77.3441C65.7803 84.011 58.9648 77.4143 58.9648 65.9682V40.149C58.9648 28.703 65.7803 22.0625 77.3441 22.0625H119.995C131.031 22.0625 138.374 28.703 138.374 40.149ZM84.5994 42.9887C82.7966 42.9887 81.4774 44.2119 81.4774 45.872C81.4774 47.576 82.7966 48.8429 84.5994 48.8429H87.9407C89.128 53.1241 91.3707 57.187 94.4486 60.5945C91.4585 62.5607 87.9848 64.0021 83.9835 64.9634C82.2689 65.3567 81.2576 66.973 81.6093 68.7203C82.0929 70.4682 83.8515 71.2542 85.7426 70.7299C90.5351 69.6817 95.02 67.6722 99.0214 64.7451C102.847 67.6283 107.332 69.6379 111.772 70.6865C113.927 71.2108 115.73 70.5554 116.213 68.7203C116.697 66.8419 115.818 65.3567 113.927 64.9634C109.926 64.0459 106.496 62.6041 103.419 60.5945C106.54 57.2743 108.739 53.2552 109.926 48.8429H113.311C115.114 48.8429 116.433 47.576 116.433 45.872C116.433 44.2119 115.114 42.9887 113.311 42.9887H84.5994ZM99.0214 56.881C96.8669 54.5221 95.1519 51.77 94.1407 48.8429H103.77C102.759 51.7261 101.132 54.4783 99.0214 56.881ZM94.6242 31.4115C93.1294 32.1105 92.4698 33.9017 93.2613 35.5182L95.3717 39.9306C96.0754 41.5033 97.8782 42.1149 99.4171 41.4596C101.044 40.6296 101.704 38.8821 100.912 37.3093L98.7575 32.9406C97.966 31.2805 96.2073 30.5378 94.6242 31.4115Z" fill="white" fill-opacity="0.85"/>
</g>
<defs>
<clipPath id="clip0_2930_65549">
<rect width="140" height="100" fill="white"/>
</clipPath>
</defs>
</svg>
