<svg width="143" height="109" viewBox="0 0 143 109" fill="none" xmlns="http://www.w3.org/2000/svg">
<g clip-path="url(#clip0_1752_765)">
<path d="M18.7482 109H122.042C134.581 109 140.79 102.902 140.79 90.7049V18.3541C140.79 6.1575 134.581 0 122.042 0H18.7482C6.2693 0 0 6.1575 0 18.3541V90.7049C0 102.902 6.2693 109 18.7482 109ZM18.8676 99.4675C12.8969 99.4675 9.61296 96.33 9.61296 90.172V18.887C9.61296 12.7295 12.8969 9.53235 18.8676 9.53235H121.923C127.834 9.53235 131.178 12.7295 131.178 18.887V90.172C131.178 96.33 127.834 99.4675 121.923 99.4675H18.8676Z" fill="white" fill-opacity="0.85"/>
<path d="M59.2911 77.6202L93.3246 57.6676C95.832 56.2466 95.7727 52.8126 93.3246 51.3325L59.2911 31.3797C56.7834 29.8995 53.3203 31.0245 53.3203 33.9256V75.0744C53.3203 77.9166 56.5446 79.2783 59.2911 77.6202Z" fill="white" fill-opacity="0.85"/>
</g>
<defs>
<clipPath id="clip0_1752_765">
<rect width="143" height="109" fill="white"/>
</clipPath>
</defs>
</svg>
