<svg width="143" height="91" viewBox="0 0 143 91" fill="none" xmlns="http://www.w3.org/2000/svg">
<g clip-path="url(#clip0_1752_619)">
<path d="M97.6311 13.2245V23.8302H71.0161C63.5061 23.8302 59.7288 27.4091 59.7288 35.0471V68.3918C59.7288 68.4222 59.7293 68.4521 59.732 68.4794H10.2324C8.30001 68.4794 7.07031 67.257 7.07031 65.3366V13.2245C7.07031 11.2604 8.30001 10.082 10.2324 10.082H94.4691C96.4011 10.082 97.6311 11.2604 97.6311 13.2245Z" fill="white" fill-opacity="0.2125"/>
<path d="M104.702 13.0931V23.8298H97.6318V13.224C97.6318 11.26 96.4017 10.0816 94.4697 10.0816H10.2331C8.30066 10.0816 7.07096 11.26 7.07096 13.224V65.3361C7.07096 67.2566 8.30066 68.4789 10.2331 68.4789H59.7326C59.7524 74.2183 61.9237 77.6221 66.2298 78.9316V83.9292H66.4934C68.4254 83.9292 70.0067 85.5005 70.0067 87.4643C70.0067 89.4286 68.4254 90.9995 66.4934 90.9995H38.2094C36.277 90.9995 34.652 89.4286 34.652 87.4643C34.652 85.5005 36.277 83.9292 38.2094 83.9292H38.473V75.5055H10.1013C3.82094 75.5055 0 71.7084 0 65.4237V13.0931C0 6.80818 3.82094 3.05469 10.1013 3.05469H94.5574C100.881 3.05469 104.702 6.80818 104.702 13.0931Z" fill="white" fill-opacity="0.85"/>
<path d="M66.8008 68.2611V35.1783C66.8008 32.0795 68.1185 30.8574 71.1488 30.8574H130C132.987 30.8574 134.304 32.0795 134.304 35.1783V68.2611C134.304 71.3163 132.987 72.5387 130 72.5387H71.1488C68.1185 72.5387 66.8008 71.3163 66.8008 68.2611Z" fill="white" fill-opacity="0.2125"/>
<path d="M59.7305 68.3916C59.7305 76.0296 63.5077 79.5648 71.0178 79.5648H130.132C137.643 79.5648 141.376 76.0296 141.376 68.3916V35.0469C141.376 27.409 137.643 23.8301 130.132 23.8301H71.0178C63.5077 23.8301 59.7305 27.409 59.7305 35.0469V68.3916ZM66.8016 68.2607V35.1778C66.8016 32.079 68.1193 30.857 71.1495 30.857H130.001C132.987 30.857 134.305 32.079 134.305 35.1778V68.2607C134.305 71.3159 132.987 72.5382 130.001 72.5382H71.1495C68.1193 72.5382 66.8016 71.3159 66.8016 68.2607ZM88.9368 85.8937H112.214V75.4187H88.9368V85.8937ZM88.6733 90.9998H112.433C114.41 90.9998 115.991 89.4289 115.991 87.4647C115.991 85.5009 114.41 83.9295 112.433 83.9295H88.6733C86.7408 83.9295 85.1159 85.5009 85.1159 87.4647C85.1159 89.4289 86.7408 90.9998 88.6733 90.9998Z" fill="white" fill-opacity="0.85"/>
</g>
<defs>
<clipPath id="clip0_1752_619">
<rect width="143" height="91" fill="white"/>
</clipPath>
</defs>
</svg>
