<svg width="63" height="50" viewBox="0 0 63 50" fill="none" xmlns="http://www.w3.org/2000/svg">
<g clip-path="url(#clip0_4048_920)">
<path d="M6.38196 41.5043H55.6992C59.6724 41.5043 62.0813 39.0556 62.0813 35.0824V6.4218C62.0813 2.44878 59.6724 0 55.6992 0H6.38196C2.43358 0 0 2.44878 0 6.4218V35.0824C0 39.0556 2.43358 41.5043 6.38196 41.5043ZM6.45644 37.4812C4.91682 37.4812 3.99804 36.5567 3.99804 35.0325V6.47178C3.99804 4.94752 4.91682 4.023 6.45644 4.023H55.6247C57.1644 4.023 58.0832 4.94752 58.0832 6.47178V35.0325C58.0832 36.5567 57.1644 37.4812 55.6247 37.4812H6.45644ZM18.5499 49.9749H43.5312C44.6239 49.9749 45.5429 49.0755 45.5429 47.951C45.5429 46.8267 44.6239 45.927 43.5312 45.927H18.5499C17.4572 45.927 16.5384 46.8267 16.5384 47.951C16.5384 49.0755 17.4572 49.9749 18.5499 49.9749Z" fill="black"/>
<path d="M38.54 16.2167C39.7321 15.8919 40.0797 15.642 40.0797 14.1927V9.29514C40.0797 8.34563 39.757 7.92083 38.4408 8.24568L31.165 10.0698C29.948 10.3696 29.6749 10.6195 29.6749 12.0937V23.3631C29.6749 24.4626 29.5757 24.6625 28.334 25.0123L26.0493 25.6121C23.7896 26.2116 21.9023 27.5611 21.9023 30.0098C21.9023 32.1338 23.4916 33.6831 25.9748 33.6831C29.5258 33.6831 31.9347 31.1092 31.9347 27.4861V18.9154C31.9347 17.9908 32.1582 17.7409 32.7044 17.616L38.54 16.2167Z" fill="black"/>
</g>
<defs>
<clipPath id="clip0_4048_920">
<rect width="63" height="50" fill="white"/>
</clipPath>
</defs>
</svg>
