<svg width="70" height="50" viewBox="0 0 70 50" fill="none" xmlns="http://www.w3.org/2000/svg">
<g clip-path="url(#clip0_4048_880)">
<path d="M43.9292 18.1846H11.6835C8.1992 18.1846 6.22331 20.1499 6.22331 23.6157V35.8089C6.22331 39.2959 8.1992 41.2612 11.6835 41.2612H48.1629C51.6684 41.2612 53.6229 39.2959 53.6229 35.8089V23.9686L56.7475 20.8664C56.9457 21.7001 57.0436 22.6194 57.0436 23.6157V35.8089C57.0436 41.4936 53.8779 44.6424 48.1629 44.6424H11.6835C5.98961 44.6424 2.80273 41.4936 2.80273 35.8089V23.6157C2.80273 17.9521 5.98961 14.7822 11.6835 14.7822H47.3466L43.9292 18.1846Z" fill="black" fill-opacity="0.85"/>
<path d="M43.7844 29.174L62.8634 10.2183L59.6977 7.06957L40.6401 26.0252L38.8767 30.0617C38.7068 30.4843 39.1528 30.9703 39.6204 30.8013L43.7844 29.174ZM64.4144 8.67564L66.1139 7.00617C66.9213 6.20314 66.9637 5.01974 66.1353 4.23784L65.5829 3.73065C64.8604 3.07555 63.7132 3.05441 62.9482 3.83631L61.2698 5.54805L64.4144 8.67564Z" fill="black" fill-opacity="0.85"/>
<path d="M32.3976 32.6179C34.0758 32.6179 35.4356 31.2655 35.4356 29.596C35.4356 27.9267 34.0758 26.5742 32.3976 26.5742C30.7191 26.5742 29.3594 27.9267 29.3594 29.596C29.3594 31.2655 30.7191 32.6179 32.3976 32.6179Z" fill="black" fill-opacity="0.85"/>
<path d="M23.2413 32.6179C24.9198 32.6179 26.2795 31.2655 26.2795 29.596C26.2795 27.9267 24.9198 26.5742 23.2413 26.5742C21.5629 26.5742 20.2031 27.9267 20.2031 29.596C20.2031 31.2655 21.5629 32.6179 23.2413 32.6179Z" fill="black" fill-opacity="0.85"/>
<path d="M14.0831 32.6179C15.7615 32.6179 17.1213 31.2655 17.1213 29.596C17.1213 27.9267 15.7615 26.5742 14.0831 26.5742C12.4047 26.5742 11.0449 27.9267 11.0449 29.596C11.0449 31.2655 12.4047 32.6179 14.0831 32.6179Z" fill="black" fill-opacity="0.85"/>
</g>
<defs>
<clipPath id="clip0_4048_880">
<rect width="70" height="50" fill="white"/>
</clipPath>
</defs>
</svg>
