<svg width="84" height="100" viewBox="0 0 84 100" fill="none" xmlns="http://www.w3.org/2000/svg">
<g clip-path="url(#clip0_2930_65520)">
<path d="M49.3923 8.1073L9.01239 31.4041C8.07904 31.9128 7.69721 32.5911 7.69721 33.4814V80.0818C4.37799 80.8358 0.824219 79.6464 0.824219 73.7972V33.5238C0.824219 28.7333 1.3333 27.8431 5.44863 25.5114L40.0258 5.5442C43.1512 3.74395 48.1242 3.21734 49.3923 8.1073Z" fill="white" fill-opacity="0.85"/>
<path d="M66.2843 17.8545L25.8958 41.1561C25.0048 41.6649 24.623 42.3434 24.623 43.2333V89.83C21.2908 90.5923 17.75 89.4085 17.75 83.5493V43.2333C17.75 38.4855 18.2591 37.5951 22.332 35.2211L56.9517 15.2963C60.0818 13.4932 65.034 12.9677 66.2843 17.8545Z" fill="white" fill-opacity="0.85"/>
<path d="M35.4375 92.9175C35.4375 99.6583 40.3588 101.651 45.7046 98.5561L79.0089 79.4788C82.9119 77.2323 84.3121 74.9007 84.3121 70.1524V30.7267C84.3121 24.1982 79.4755 22.7144 74.1297 25.7667L40.8254 44.9708C36.7951 47.3023 35.4375 49.6765 35.4375 54.2976V92.9175Z" fill="white" fill-opacity="0.85"/>
</g>
<defs>
<clipPath id="clip0_2930_65520">
<rect width="84" height="100" fill="white"/>
</clipPath>
</defs>
</svg>
