<svg width="109" height="100" viewBox="0 0 109 100" fill="none" xmlns="http://www.w3.org/2000/svg">
<g clip-path="url(#clip0_2930_65535)">
<path d="M76.0713 47.8603C76.0713 50.8153 75.486 53.6529 74.4146 56.2527H33.0568C31.9855 53.6529 31.4001 50.8153 31.4001 47.8603C31.4001 35.6044 41.5377 25.3427 53.7359 25.3427C65.9339 25.3427 76.0713 35.6044 76.0713 47.8603ZM23.6939 46.8631C23.7351 48.7329 22.1279 50.2282 19.985 50.2282H9.84736C7.74569 50.2282 6.17969 48.7329 6.17969 46.8631C6.17969 44.9938 7.74569 43.498 9.84736 43.498H19.985C22.1279 43.498 23.6527 45.0351 23.6939 46.8631ZM101.292 46.8631C101.292 48.7329 99.7672 50.2699 97.6244 50.2282H87.4865C85.3437 50.2282 83.819 48.7329 83.7777 46.8631C83.7368 44.9938 85.3437 43.498 87.4865 43.498H97.6244C99.7672 43.498 101.292 45.0351 101.292 46.8631ZM25.095 14.2501L32.2655 21.479C33.7491 23.0162 33.7491 25.1765 32.4715 26.506C31.2352 27.8354 29.0099 27.7939 27.4852 26.2567L20.3147 19.0278C18.7899 17.4906 18.7899 15.3303 20.1498 14.0423C21.4273 12.7545 23.529 12.7129 25.095 14.2501ZM87.3629 14.0423C88.6407 15.3718 88.6816 17.4906 87.157 19.0278L79.9865 26.2567C78.4619 27.7939 76.3186 27.7939 74.9999 26.506C73.6812 25.2181 73.7226 23.0162 75.2472 21.479L82.4176 14.2501C83.9427 12.7129 86.0855 12.7129 87.3629 14.0423ZM57.0738 3.69754V13.9177C57.0738 16.0365 55.5901 17.6152 53.7359 17.6568C51.8813 17.6984 50.398 16.0365 50.398 13.9177V3.69754C50.398 1.53718 51.8813 0 53.7359 0C55.5901 0 57.0738 1.53718 57.0738 3.69754Z" fill="white" fill-opacity="0.85"/>
<path d="M8.77593 82.3433H92.4732C93.9565 82.3433 95.0693 81.1797 95.0693 79.6844C95.0693 78.1886 93.9565 77.0667 92.4732 77.0667H8.77593C7.33357 77.0667 6.17969 78.1886 6.17969 79.6844C6.17969 81.1797 7.33357 82.3433 8.77593 82.3433ZM14.9986 98.2967H98.6958C100.138 98.2967 101.292 97.1749 101.292 95.6791C101.292 94.142 100.138 93.0202 98.6958 93.0202H14.9986C13.5563 93.0202 12.4024 94.142 12.4024 95.6791C12.4024 97.1749 13.5563 98.2967 14.9986 98.2967ZM14.9986 66.3481H98.6958C100.138 66.3481 101.292 65.2263 101.292 63.7309C101.292 62.2351 100.138 61.1133 98.6958 61.1133H14.9986C13.5563 61.1133 12.4024 62.2351 12.4024 63.7309C12.4024 65.2263 13.5563 66.3481 14.9986 66.3481Z" fill="white" fill-opacity="0.85"/>
</g>
<defs>
<clipPath id="clip0_2930_65535">
<rect width="109" height="100" fill="white"/>
</clipPath>
</defs>
</svg>
