<svg width="102" height="100" viewBox="0 0 102 100" fill="none" xmlns="http://www.w3.org/2000/svg">
<g clip-path="url(#clip0_2930_65531)">
<path d="M50.1406 2.44978C45.9663 3.57669 41.8411 4.99756 37.8633 6.66339H50.1406V2.44978ZM50.1406 10.1421H26.961C26.1753 11.7099 25.4386 13.4248 24.8002 15.2377H50.1406V10.1421ZM50.1406 20.6762H14.9784C14.5363 22.293 14.1435 24.0079 13.7997 25.7227H50.1406V20.6762ZM50.1406 31.1613H6.67884C6.43333 32.8271 6.23686 34.542 6.08957 36.2568H50.1406V31.1613ZM50.1406 41.6953H5.94222C5.84401 43.3612 5.79488 45.0761 5.7458 46.7419H50.1406V41.6953ZM50.1406 52.1805H5.7458C5.79488 53.8953 5.84401 55.6102 5.94222 57.2759H50.1406V52.1805ZM50.1406 62.7145H6.08957C6.23686 64.4293 6.43333 66.095 6.67884 67.8099H50.1406V62.7145ZM50.1406 73.2485H13.7997C14.1435 74.9634 14.5363 76.6782 14.9784 78.2953H50.1406V73.2485ZM50.1406 84.7137H24.8002C25.4386 86.5264 26.1753 88.1921 26.961 89.8091H50.1406V84.7137ZM50.1406 93.288H37.8633C41.8411 94.9537 45.9663 96.3254 50.1406 97.4523V93.288ZM50.0915 99.9513C77.7401 99.9513 100.183 77.5603 100.183 49.9756C100.183 22.391 77.7401 0 50.0915 0C22.4429 0 0 22.391 0 49.9756C0 77.5603 22.4429 99.9513 50.0915 99.9513ZM50.0915 91.6218C27.0101 91.6218 8.3486 73.0037 8.3486 49.9756C8.3486 26.9476 27.0101 8.32929 50.0915 8.32929C73.173 8.32929 91.8343 26.9476 91.8343 49.9756C91.8343 73.0037 73.173 91.6218 50.0915 91.6218Z" fill="white" fill-opacity="0.85"/>
</g>
<defs>
<clipPath id="clip0_2930_65531">
<rect width="102" height="100" fill="white"/>
</clipPath>
</defs>
</svg>
