<svg width="102" height="100" viewBox="0 0 102 100" fill="none" xmlns="http://www.w3.org/2000/svg">
<g clip-path="url(#clip0_1752_611)">
<path d="M58.2701 100H82.4393C88.0736 100 92.4593 98.3934 95.3404 95.5579C98.3175 92.6595 99.8861 88.3432 99.8861 82.8297V59.106C99.8861 53.5926 98.3175 49.2763 95.3404 46.3778C92.4272 43.5108 88.0736 41.9355 82.4393 41.9355H58.2701C52.668 41.9355 48.2503 43.5423 45.3692 46.3778C42.4241 49.2763 40.8555 53.5926 40.8555 59.106V82.8297C40.8555 88.3432 42.3921 92.6595 45.3692 95.5579C48.2823 98.425 52.668 100 58.2701 100Z" fill="#414141" fill-opacity="0.85"/>
</g>
<g clip-path="url(#clip1_1752_611)">
<path d="M17.4147 91.3974H41.5838C47.2181 91.3974 51.6038 89.7908 54.4849 86.9553C57.4621 84.057 59.0306 79.7407 59.0306 74.2272V50.5035C59.0306 44.99 57.4621 40.6738 54.4849 37.7753C51.5717 34.9083 47.2181 33.333 41.5838 33.333H17.4147C11.8125 33.333 7.39484 34.9398 4.51372 37.7753C1.5686 40.6738 0 44.99 0 50.5035V74.2272C0 79.7407 1.53659 84.057 4.51372 86.9553C7.42683 89.8224 11.8125 91.3974 17.4147 91.3974Z" fill="white" fill-opacity="0.85"/>
</g>
<g clip-path="url(#clip2_1752_611)">
<path d="M46.4459 58.0644H70.615C76.2494 58.0644 80.6351 56.4578 83.5162 53.6223C86.4933 50.724 88.0619 46.4077 88.0619 40.8942V17.1705C88.0619 11.657 86.4933 7.34077 83.5162 4.44226C80.603 1.57527 76.2494 0 70.615 0H46.4459C40.8438 0 36.4261 1.60678 33.545 4.44226C30.5999 7.34077 29.0312 11.657 29.0312 17.1705V40.8942C29.0312 46.4077 30.5678 50.724 33.545 53.6223C36.4581 56.4894 40.8438 58.0644 46.4459 58.0644Z" fill="#5266EC" fill-opacity="0.85"/>
</g>
<defs>
<clipPath id="clip0_1752_611">
<rect width="60.215" height="58.0644" fill="white" transform="translate(40.8555 41.9355)"/>
</clipPath>
<clipPath id="clip1_1752_611">
<rect width="60.215" height="58.0644" fill="white" transform="translate(0 33.333)"/>
</clipPath>
<clipPath id="clip2_1752_611">
<rect width="60.215" height="58.0644" fill="white" transform="translate(29.0312)"/>
</clipPath>
</defs>
</svg>
