<svg width="75" height="50" viewBox="0 0 75 50" fill="none" xmlns="http://www.w3.org/2000/svg">
<g clip-path="url(#clip0_4048_858)">
<path d="M15.7494 49.5617H56.3524C66.8618 49.5617 75.001 41.5781 75.001 31.3713C75.001 21.0708 66.6746 13.3062 55.3545 13.3062C51.207 5.04072 43.5976 0 34.3359 0C22.2359 0 12.0072 9.42391 10.9158 21.9161C4.67872 23.7007 0.46875 28.9605 0.46875 35.6294C0.46875 43.3312 6.05087 49.5617 15.7494 49.5617ZM15.6871 44.5209C9.29414 44.5209 5.48955 41.0456 5.48955 35.7858C5.48955 31.2774 8.35858 28.0213 13.4106 26.675C15.1569 26.2367 15.8118 25.4227 15.9365 23.6068C16.685 12.9931 24.606 5.04072 34.3359 5.04072C41.8514 5.04072 47.6518 9.23607 51.1444 16.4371C51.8929 17.9712 52.7973 18.5034 54.6996 18.5034C64.4604 18.5034 69.9491 24.4208 69.9491 31.4966C69.9491 38.7915 64.1487 44.5209 56.6954 44.5209H15.6871Z" fill="black" fill-opacity="0.85"/>
</g>
<defs>
<clipPath id="clip0_4048_858">
<rect width="75" height="50" fill="white"/>
</clipPath>
</defs>
</svg>
