<svg width="108" height="100" viewBox="0 0 108 100" fill="none" xmlns="http://www.w3.org/2000/svg">
<g clip-path="url(#clip0_2930_65540)">
<path d="M63.0933 87.5045C64.1522 88.1079 64.5055 89.3856 63.8699 90.4507L59.2448 98.4733C58.6801 99.5027 57.3735 99.8579 56.3497 99.2901C55.2553 98.651 54.9376 97.4086 55.5377 96.3791L60.1628 88.3209C60.8338 87.2202 62.034 86.8654 63.0933 87.5045Z" fill="white" fill-opacity="0.85"/>
<path d="M52.0399 77.4936C53.0991 78.1323 53.4524 79.3748 52.8168 80.4755L48.2268 88.4624C47.6267 89.5275 46.3559 89.8827 45.2966 89.2789C44.2022 88.6754 43.9195 87.3977 44.52 86.4035L49.1451 78.31C49.7803 77.245 50.9809 76.8898 52.0399 77.4936Z" fill="white" fill-opacity="0.85"/>
<path d="M35.0242 87.5395C36.048 88.143 36.4013 89.421 35.7656 90.4861L31.1759 98.5087C30.5757 99.5382 29.3047 99.8933 28.2455 99.3252C27.1863 98.6861 26.8686 97.4436 27.4688 96.4142L32.0938 88.356C32.7293 87.2556 33.9297 86.9005 35.0242 87.5395Z" fill="white" fill-opacity="0.85"/>
<path d="M23.9734 77.5295C25.0326 78.1685 25.3503 79.411 24.7148 80.5113L20.1251 88.4987C19.5249 89.5638 18.2539 89.9185 17.1947 89.3151C16.1355 88.7117 15.8178 87.4336 16.418 86.4398L21.043 78.3459C21.6785 77.2812 22.8789 76.9261 23.9734 77.5295Z" fill="white" fill-opacity="0.85"/>
<path d="M91.9009 53.2836L97.3734 58.7503C98.5032 59.8863 98.5032 61.7678 97.3734 62.8681C96.2436 64.0041 94.3723 64.0397 93.278 62.9038L87.7701 57.437C86.6403 56.301 86.6403 54.4195 87.7701 53.2836C88.8999 52.1832 90.7711 52.1832 91.9009 53.2836ZM88.8999 36.8476C88.8999 43.1523 85.5033 48.7554 80.4682 51.8521C79.4787 41.4961 71.2311 33.7237 60.4084 32.6588C59.2779 30.8644 57.9829 29.2278 56.5367 27.7797C59.6011 22.674 65.1719 19.2403 71.4589 19.2403C80.9914 19.2403 88.8999 27.192 88.8999 36.8476ZM108 36.8476C108 38.4805 106.694 39.7942 105.105 39.7942H97.4439C95.8904 39.7942 94.5137 38.4805 94.5137 36.8476C94.5137 35.2502 95.8904 33.9013 97.4439 33.9013H105.105C106.694 33.9013 108 35.2502 108 36.8476ZM97.3734 10.8271C98.5032 11.9631 98.5032 13.88 97.3734 15.016L91.9364 20.4473C90.7711 21.6187 88.8999 21.5832 87.7701 20.4473C86.6403 19.3113 86.6403 17.4299 87.7701 16.3294L93.278 10.8271C94.3723 9.65565 96.2436 9.69116 97.3734 10.8271ZM49.7107 10.8271L55.1477 16.3294C56.2421 17.3944 56.2421 19.3468 55.1123 20.4473C53.9825 21.5832 52.1116 21.5832 50.9818 20.4473L45.5798 14.9804C44.45 13.88 44.4855 11.9631 45.6153 10.8271C46.745 9.69116 48.6163 9.69116 49.7107 10.8271ZM74.3895 2.94639V10.6496C74.3895 12.2471 73.0478 13.5605 71.4589 13.5605C69.8703 13.5605 68.5287 12.2471 68.5287 10.6496V2.94639C68.5287 1.38445 69.8703 0 71.4589 0C73.0478 0 74.3895 1.38445 74.3895 2.94639Z" fill="white" fill-opacity="0.85"/>
<path d="M20.4061 71.4941H58.6067C68.6688 71.4941 76.4714 63.8263 76.4714 53.9578C76.4714 44.1598 68.5278 36.7407 57.9715 36.6698C53.9111 28.8955 46.6028 24.1387 37.8823 24.1387C26.3727 24.1387 16.6284 33.1199 15.5339 44.7989C9.67312 46.5739 5.68359 51.6146 5.68359 58.0043C5.68359 65.8852 11.5796 71.4941 20.4061 71.4941Z" fill="white" fill-opacity="0.85"/>
</g>
<defs>
<clipPath id="clip0_2930_65540">
<rect width="108" height="100" fill="white"/>
</clipPath>
</defs>
</svg>
