<svg width="126" height="116" viewBox="0 0 126 116" fill="none" xmlns="http://www.w3.org/2000/svg">
<g clip-path="url(#clip0_1752_390)">
<path d="M62.539 24.5453L28.4543 24.5453C23.2018 24.5453 17.7492 25.1992 14.6978 28.2674C11.6963 31.2853 11.046 36.7175 11.046 41.9988V86.2611C11.046 91.442 11.6963 96.8238 14.6978 99.892C17.7492 102.91 23.1518 103.614 28.3042 103.614H72.4749C77.6276 103.614 83.0302 102.91 86.0314 99.892C89.0829 96.8238 89.7334 91.442 89.7334 86.2611V64.5489C91.055 64.7472 92.4104 64.8343 93.7852 64.8343C95.1411 64.8343 96.4796 64.7467 97.7869 64.5479V84.9034C97.7869 93.5043 97.037 100.647 91.9345 105.777C86.8321 110.907 79.6284 111.713 71.0745 111.713H29.655C21.1508 111.713 13.9474 110.907 8.84497 105.777C3.74257 100.647 2.99219 93.5043 2.99219 84.9034V43.1054C2.99219 34.6553 3.74257 27.5129 8.84497 22.3824C13.9474 17.252 21.1508 16.4473 29.5546 16.4473H65.7886C64.3349 18.9455 63.2264 21.6645 62.539 24.5453Z" fill="white"/>
<path d="M80.6756 90.135C80.6756 91.8954 79.2751 93.2536 77.5243 93.2536H23.1984C21.4976 93.2536 20.0969 91.8954 20.0969 90.135C20.0969 88.425 21.4976 87.0163 23.1984 87.0163H77.5243C79.2751 87.0163 80.6756 88.425 80.6756 90.135ZM45.5588 40.2894V47.985C45.5588 52.3609 42.5576 55.3286 38.2553 55.3286H27.4004C23.0483 55.3286 20.0469 52.3609 20.0469 47.985V40.2894C20.0469 35.9134 23.0483 32.8955 27.4004 32.8955H38.2553C42.5576 32.8955 45.5588 35.9134 45.5588 40.2894Z" fill="white"/>
<path d="M119.199 32.4432C119.199 46.3758 107.543 57.9949 93.7868 57.9949C79.8303 57.9949 68.375 46.4764 68.375 32.4432C68.375 18.4099 79.8303 6.8916 93.7868 6.8916C107.693 6.8916 119.199 18.4099 119.199 32.4432ZM90.7354 19.5165V29.3749H80.9306C79.13 29.3749 77.8791 30.5821 77.8791 32.4432C77.8791 34.3042 79.13 35.5113 80.9306 35.5113H90.7354V45.3698C90.7354 47.1806 91.9361 48.438 93.7868 48.438C95.6376 48.438 96.8383 47.1806 96.8383 45.3698V35.5113H106.593C108.444 35.5113 109.695 34.3042 109.695 32.4432C109.695 30.5821 108.444 29.3749 106.593 29.3749H96.8383V19.5165C96.8383 17.7057 95.6376 16.4483 93.7868 16.4483C91.9361 16.4483 90.7354 17.7057 90.7354 19.5165Z" fill="white"/>
</g>
<defs>
<clipPath id="clip0_1752_390">
<rect width="126" height="116" fill="white"/>
</clipPath>
</defs>
</svg>
