<svg width="123" height="100" viewBox="0 0 123 100" fill="none" xmlns="http://www.w3.org/2000/svg">
<g clip-path="url(#clip0_2930_65526)">
<path d="M50.1957 96.4619V60.9204C50.1957 58.6183 48.8926 57.3831 46.5697 57.3831C45.4933 57.3831 44.4735 57.7202 43.6236 58.3934L22.2077 75.9682C20.4514 77.4843 20.3381 79.7865 22.2077 81.302L43.6236 98.9325C44.4735 99.6064 45.4933 99.9996 46.5697 99.9996C48.8926 99.9996 50.1957 98.7083 50.1957 96.4619ZM116.143 48.0625C113.424 48.0625 111.384 50.1399 111.384 52.835V58.1692C111.384 67.7704 104.642 74.0593 94.3871 74.0593H41.8673C39.2612 74.0593 37.1082 76.193 37.1082 78.7193C37.1082 81.302 39.2612 83.4357 41.8673 83.4357H93.4809C110.364 83.4357 120.902 73.9466 120.902 58.8431V52.835C120.902 50.1399 118.863 48.0625 116.143 48.0625Z" fill="white" fill-opacity="0.85"/>
<path d="M70.7065 3.64964V39.1914C70.7065 41.4373 72.0095 42.7288 74.3325 42.7288C75.4087 42.7288 76.4286 42.3357 77.2785 41.6619L98.6944 24.0876C100.507 22.6277 100.621 20.3257 98.6944 18.7535L77.2785 1.12297C76.4286 0.449194 75.4087 0.112305 74.3325 0.112305C72.0095 0.112305 70.7065 1.34756 70.7065 3.64964ZM4.75909 52.0493C7.47856 52.0493 9.57483 49.9719 9.57483 47.2768V41.9427C9.57483 32.3413 16.2602 25.9966 26.5149 25.9966H79.0915C81.6413 25.9966 83.7942 23.9191 83.7942 21.3363C83.7942 18.8096 81.6413 16.676 79.0915 16.676H27.4214C10.5946 16.676 0 26.1089 0 41.2689V47.2768C0 49.9719 2.09627 52.0493 4.75909 52.0493Z" fill="white" fill-opacity="0.85"/>
</g>
<defs>
<clipPath id="clip0_2930_65526">
<rect width="123" height="100" fill="white"/>
</clipPath>
</defs>
</svg>
