<svg width="191" height="48" viewBox="0 0 191 48" fill="none" xmlns="http://www.w3.org/2000/svg">
<rect width="191" height="48" rx="12" fill="white"/>
<path d="M35.8438 16.2754C35.8438 15.34 35.8438 14.8723 35.9815 14.4982C36.2078 13.8837 36.6923 13.3993 37.3068 13.1729C37.6809 13.0352 38.1486 13.0352 39.084 13.0352V13.0352C40.0194 13.0352 40.4871 13.0352 40.8612 13.1729C41.4757 13.3993 41.9601 13.8837 42.1865 14.4982C42.3242 14.8723 42.3242 15.34 42.3242 16.2754V23.9863C42.3242 24.9217 42.3242 25.3895 42.1865 25.7635C41.9601 26.3781 41.4757 26.8625 40.8612 27.0888C40.4871 27.2266 40.0194 27.2266 39.084 27.2266V27.2266C38.1486 27.2266 37.6809 27.2266 37.3068 27.0888C36.6923 26.8625 36.2078 26.3781 35.9815 25.7635C35.8438 25.3895 35.8438 24.9217 35.8438 23.9863V16.2754Z" fill="black"/>
<path d="M43.7734 31.6973C43.7734 30.7618 43.7734 30.2941 43.9112 29.9201C44.1375 29.3055 44.6219 28.8211 45.2365 28.5948C45.6105 28.457 46.0783 28.457 47.0137 28.457H54.9434C55.8788 28.457 56.3465 28.457 56.7205 28.5948C57.3351 28.8211 57.8195 29.3055 58.0458 29.9201C58.1836 30.2941 58.1836 30.7618 58.1836 31.6973V31.6973C58.1836 32.6327 58.1836 33.1004 58.0458 33.4744C57.8195 34.089 57.3351 34.5734 56.7205 34.7997C56.3465 34.9375 55.8788 34.9375 54.9434 34.9375H47.0137C46.0783 34.9375 45.6105 34.9375 45.2365 34.7997C44.6219 34.5734 44.1375 34.089 43.9112 33.4744C43.7734 33.1004 43.7734 32.6327 43.7734 31.6973V31.6973Z" fill="black"/>
<path d="M43.7734 23.9863C43.7734 23.0509 43.7734 22.5832 43.9112 22.2091C44.1375 21.5946 44.6219 21.1102 45.2365 20.8839C45.6105 20.7461 46.0783 20.7461 47.0137 20.7461V20.7461C47.9491 20.7461 48.4168 20.7461 48.7909 20.8839C49.4054 21.1102 49.8898 21.5946 50.1161 22.2091C50.2539 22.5832 50.2539 23.0509 50.2539 23.9863V23.9863C50.2539 24.9217 50.2539 25.3895 50.1161 25.7635C49.8898 26.3781 49.4054 26.8625 48.7909 27.0888C48.4168 27.2266 47.9491 27.2266 47.0137 27.2266V27.2266C46.0783 27.2266 45.6105 27.2266 45.2365 27.0888C44.6219 26.8625 44.1375 26.3781 43.9112 25.7635C43.7734 25.3895 43.7734 24.9217 43.7734 23.9863V23.9863Z" fill="black"/>
<path d="M35.8438 31.6973C35.8438 30.7618 35.8438 30.2941 35.9815 29.9201C36.2078 29.3055 36.6923 28.8211 37.3068 28.5948C37.6809 28.457 38.1486 28.457 39.084 28.457V28.457C40.0194 28.457 40.4871 28.457 40.8612 28.5948C41.4757 28.8211 41.9601 29.3055 42.1865 29.9201C42.3242 30.2941 42.3242 30.7618 42.3242 31.6973V31.6973C42.3242 32.6327 42.3242 33.1004 42.1865 33.4744C41.9601 34.089 41.4757 34.5734 40.8612 34.7997C40.4871 34.9375 40.0194 34.9375 39.084 34.9375V34.9375C38.1486 34.9375 37.6809 34.9375 37.3068 34.7997C36.6923 34.5734 36.2078 34.089 35.9815 33.4744C35.8438 33.1004 35.8438 32.6327 35.8438 31.6973V31.6973Z" fill="black"/>
<path d="M43.7734 16.2754C43.7734 15.34 43.7734 14.8723 43.9112 14.4982C44.1375 13.8837 44.6219 13.3993 45.2365 13.1729C45.6105 13.0352 46.0783 13.0352 47.0137 13.0352V13.0352C47.9491 13.0352 48.4168 13.0352 48.7909 13.1729C49.4054 13.3993 49.8898 13.8837 50.1161 14.4982C50.2539 14.8723 50.2539 15.34 50.2539 16.2754V16.2754C50.2539 17.2108 50.2539 17.6785 50.1161 18.0526C49.8898 18.6671 49.4054 19.1515 48.7909 19.3779C48.4168 19.5156 47.9491 19.5156 47.0137 19.5156V19.5156C46.0783 19.5156 45.6105 19.5156 45.2365 19.3779C44.6219 19.1515 44.1375 18.6671 43.9112 18.0526C43.7734 17.6785 43.7734 17.2108 43.7734 16.2754V16.2754Z" fill="black"/>
<path d="M51.7031 23.9863C51.7031 23.0509 51.7031 22.5832 51.8409 22.2091C52.0672 21.5946 52.5516 21.1102 53.1662 20.8839C53.5402 20.7461 54.0079 20.7461 54.9434 20.7461V20.7461C55.8788 20.7461 56.3465 20.7461 56.7205 20.8839C57.3351 21.1102 57.8195 21.5946 58.0458 22.2091C58.1836 22.5832 58.1836 23.0509 58.1836 23.9863V23.9863C58.1836 24.9217 58.1836 25.3895 58.0458 25.7635C57.8195 26.3781 57.3351 26.8625 56.7205 27.0888C56.3465 27.2266 55.8788 27.2266 54.9434 27.2266V27.2266C54.0079 27.2266 53.5402 27.2266 53.1662 27.0888C52.5516 26.8625 52.0672 26.3781 51.8409 25.7635C51.7031 25.3895 51.7031 24.9217 51.7031 23.9863V23.9863Z" fill="black"/>
<path d="M51.7031 16.2754C51.7031 15.34 51.7031 14.8723 51.8409 14.4982C52.0672 13.8837 52.5516 13.3993 53.1662 13.1729C53.5402 13.0352 54.0079 13.0352 54.9434 13.0352V13.0352C55.8788 13.0352 56.3465 13.0352 56.7205 13.1729C57.3351 13.3993 57.8195 13.8837 58.0458 14.4982C58.1836 14.8723 58.1836 15.34 58.1836 16.2754V16.2754C58.1836 17.2108 58.1836 17.6785 58.0458 18.0526C57.8195 18.6671 57.3351 19.1515 56.7205 19.3779C56.3465 19.5156 55.8788 19.5156 54.9434 19.5156V19.5156C54.0079 19.5156 53.5402 19.5156 53.1662 19.3779C52.5516 19.1515 52.0672 18.6671 51.8409 18.0526C51.7031 17.6785 51.7031 17.2108 51.7031 16.2754V16.2754Z" fill="black"/>
<path d="M65.6211 35V20.9082H70.875C72.2747 20.9082 73.4694 21.1816 74.459 21.7285C75.4486 22.2754 76.2038 23.0697 76.7246 24.1113C77.252 25.153 77.5156 26.4128 77.5156 27.8906V27.9102C77.5156 29.4076 77.252 30.6868 76.7246 31.748C76.2038 32.8027 75.4486 33.61 74.459 34.1699C73.4759 34.7233 72.2812 35 70.875 35H65.6211ZM68.1406 32.8809H70.5527C71.4902 32.8809 72.2845 32.6888 72.9355 32.3047C73.5931 31.9206 74.0911 31.3607 74.4297 30.625C74.7747 29.8893 74.9473 28.9941 74.9473 27.9395V27.9199C74.9473 26.8848 74.7747 26.0026 74.4297 25.2734C74.0846 24.5443 73.5833 23.9876 72.9258 23.6035C72.2682 23.2194 71.4772 23.0273 70.5527 23.0273H68.1406V32.8809ZM84.2271 35.2148C83.1789 35.2148 82.2707 34.9935 81.5025 34.5508C80.7408 34.1081 80.1516 33.4766 79.7349 32.6562C79.3248 31.8294 79.1197 30.8464 79.1197 29.707V29.6875C79.1197 28.5547 79.328 27.5781 79.7447 26.7578C80.1614 25.931 80.7505 25.2962 81.5123 24.8535C82.2805 24.4108 83.1854 24.1895 84.2271 24.1895C85.2753 24.1895 86.1802 24.4108 86.942 24.8535C87.7037 25.2962 88.2929 25.9277 88.7095 26.748C89.1262 27.5684 89.3345 28.5482 89.3345 29.6875V29.707C89.3345 30.8464 89.1262 31.8294 88.7095 32.6562C88.2994 33.4766 87.7134 34.1081 86.9517 34.5508C86.19 34.9935 85.2818 35.2148 84.2271 35.2148ZM84.2271 33.2422C84.7805 33.2422 85.2525 33.1022 85.6431 32.8223C86.0337 32.5423 86.3332 32.1387 86.5416 31.6113C86.7499 31.084 86.8541 30.4492 86.8541 29.707V29.6875C86.8541 28.9453 86.7499 28.3138 86.5416 27.793C86.3332 27.2656 86.0337 26.862 85.6431 26.582C85.2525 26.3021 84.7805 26.1621 84.2271 26.1621C83.6802 26.1621 83.2115 26.3021 82.8209 26.582C82.4302 26.862 82.1308 27.2656 81.9224 27.793C81.7141 28.3138 81.6099 28.9453 81.6099 29.6875V29.707C81.6099 30.4557 81.7141 31.0938 81.9224 31.6211C82.1308 32.1484 82.4302 32.5521 82.8209 32.832C83.2115 33.1055 83.6802 33.2422 84.2271 33.2422ZM92.9503 35L90.0792 24.4043H92.5206L94.2882 32.4121H94.4249L96.4757 24.4043H98.7902L100.851 32.4121H100.987L102.755 24.4043H105.157L102.296 35H99.7472L97.6671 27.3047H97.5304L95.4698 35H92.9503ZM106.742 35V24.4043H109.174V26.0352H109.31C109.571 25.4622 109.958 25.013 110.472 24.6875C110.993 24.3555 111.641 24.1895 112.416 24.1895C113.594 24.1895 114.496 24.5345 115.121 25.2246C115.752 25.9147 116.068 26.888 116.068 28.1445V35H113.636V28.6914C113.636 27.8841 113.461 27.2754 113.109 26.8652C112.764 26.4486 112.23 26.2402 111.507 26.2402C111.026 26.2402 110.609 26.3477 110.257 26.5625C109.912 26.7773 109.646 27.0768 109.457 27.4609C109.268 27.8451 109.174 28.3008 109.174 28.8281V35H106.742ZM118.492 35V20.3613H120.924V35H118.492ZM128.046 35.2148C126.998 35.2148 126.089 34.9935 125.321 34.5508C124.559 34.1081 123.97 33.4766 123.554 32.6562C123.143 31.8294 122.938 30.8464 122.938 29.707V29.6875C122.938 28.5547 123.147 27.5781 123.563 26.7578C123.98 25.931 124.569 25.2962 125.331 24.8535C126.099 24.4108 127.004 24.1895 128.046 24.1895C129.094 24.1895 129.999 24.4108 130.761 24.8535C131.522 25.2962 132.111 25.9277 132.528 26.748C132.945 27.5684 133.153 28.5482 133.153 29.6875V29.707C133.153 30.8464 132.945 31.8294 132.528 32.6562C132.118 33.4766 131.532 34.1081 130.77 34.5508C130.009 34.9935 129.1 35.2148 128.046 35.2148ZM128.046 33.2422C128.599 33.2422 129.071 33.1022 129.462 32.8223C129.852 32.5423 130.152 32.1387 130.36 31.6113C130.568 31.084 130.673 30.4492 130.673 29.707V29.6875C130.673 28.9453 130.568 28.3138 130.36 27.793C130.152 27.2656 129.852 26.862 129.462 26.582C129.071 26.3021 128.599 26.1621 128.046 26.1621C127.499 26.1621 127.03 26.3021 126.639 26.582C126.249 26.862 125.949 27.2656 125.741 27.793C125.533 28.3138 125.429 28.9453 125.429 29.6875V29.707C125.429 30.4557 125.533 31.0938 125.741 31.6211C125.949 32.1484 126.249 32.5521 126.639 32.832C127.03 33.1055 127.499 33.2422 128.046 33.2422ZM138.019 35.1758C137.342 35.1758 136.74 35.0456 136.212 34.7852C135.685 34.5247 135.272 34.1569 134.972 33.6816C134.673 33.1999 134.523 32.64 134.523 32.002V31.9824C134.523 31.3509 134.679 30.8105 134.992 30.3613C135.304 29.9056 135.76 29.5475 136.359 29.2871C136.958 29.0267 137.684 28.8704 138.536 28.8184L142.492 28.584V30.1855L138.888 30.4199C138.224 30.4525 137.729 30.5957 137.404 30.8496C137.085 31.097 136.925 31.4355 136.925 31.8652V31.8848C136.925 32.334 137.094 32.6855 137.433 32.9395C137.778 33.1934 138.217 33.3203 138.751 33.3203C139.24 33.3203 139.673 33.2227 140.05 33.0273C140.428 32.832 140.727 32.5684 140.949 32.2363C141.17 31.8978 141.281 31.5202 141.281 31.1035V27.793C141.281 27.2591 141.111 26.849 140.773 26.5625C140.434 26.2695 139.943 26.123 139.298 26.123C138.732 26.123 138.273 26.2272 137.921 26.4355C137.576 26.6374 137.345 26.9173 137.228 27.2754L137.218 27.3242H134.933L134.943 27.2363C135.021 26.6309 135.249 26.1003 135.626 25.6445C136.01 25.1888 136.522 24.834 137.16 24.5801C137.804 24.3197 138.553 24.1895 139.406 24.1895C140.311 24.1895 141.082 24.3327 141.72 24.6191C142.358 24.9056 142.846 25.3158 143.185 25.8496C143.523 26.377 143.693 27.0117 143.693 27.7539V35H141.281V33.5059H141.134C140.939 33.8509 140.685 34.1504 140.372 34.4043C140.066 34.6517 139.715 34.8438 139.318 34.9805C138.921 35.1107 138.488 35.1758 138.019 35.1758ZM149.926 35.1855C149.034 35.1855 148.262 34.9642 147.611 34.5215C146.96 34.0723 146.456 33.4375 146.098 32.6172C145.74 31.7969 145.56 30.8268 145.56 29.707V29.6973C145.56 28.5645 145.736 27.5911 146.088 26.7773C146.446 25.957 146.95 25.3255 147.601 24.8828C148.253 24.4401 149.024 24.2188 149.916 24.2188C150.404 24.2188 150.86 24.2969 151.283 24.4531C151.706 24.6094 152.077 24.8275 152.396 25.1074C152.715 25.3874 152.969 25.7259 153.158 26.123H153.295V20.3613H155.726V35H153.295V33.3105H153.158C152.963 33.7012 152.706 34.0365 152.387 34.3164C152.074 34.5964 151.71 34.8112 151.293 34.9609C150.876 35.1107 150.42 35.1855 149.926 35.1855ZM150.668 33.1348C151.215 33.1348 151.687 32.998 152.084 32.7246C152.481 32.4447 152.787 32.0475 153.002 31.5332C153.217 31.0189 153.324 30.4134 153.324 29.7168V29.6973C153.324 28.9876 153.213 28.3789 152.992 27.8711C152.777 27.3568 152.471 26.9629 152.074 26.6895C151.677 26.4095 151.208 26.2695 150.668 26.2695C150.128 26.2695 149.659 26.4095 149.262 26.6895C148.871 26.9629 148.568 27.3535 148.353 27.8613C148.145 28.3691 148.041 28.9811 148.041 29.6973V29.707C148.041 30.4167 148.145 31.0286 148.353 31.543C148.568 32.0573 148.871 32.4512 149.262 32.7246C149.659 32.998 150.128 33.1348 150.668 33.1348Z" fill="#1C1C1C"/>
<path d="M65.707 18V12.3633H67.7422C68.3021 12.3633 68.7799 12.474 69.1758 12.6953C69.5716 12.9167 69.8737 13.2357 70.082 13.6523C70.293 14.069 70.3984 14.5729 70.3984 15.1641V15.1719C70.3984 15.7682 70.293 16.2773 70.082 16.6992C69.8737 17.1211 69.5716 17.444 69.1758 17.668C68.7826 17.8893 68.3047 18 67.7422 18H65.707ZM66.582 17.2422H67.6445C68.0378 17.2422 68.3724 17.1615 68.6484 17C68.9271 16.8385 69.138 16.6042 69.2812 16.2969C69.4271 15.9896 69.5 15.6185 69.5 15.1836V15.1758C69.5 14.7435 69.4258 14.3737 69.2773 14.0664C69.1315 13.7591 68.9206 13.5247 68.6445 13.3633C68.3685 13.2018 68.0352 13.1211 67.6445 13.1211H66.582V17.2422ZM71.1861 18V13.7578H72.0377V18H71.1861ZM71.6158 13C71.4699 13 71.3449 12.9479 71.2408 12.8438C71.1366 12.7396 71.0845 12.6146 71.0845 12.4688C71.0845 12.3229 71.1366 12.1992 71.2408 12.0977C71.3449 11.9935 71.4699 11.9414 71.6158 11.9414C71.7616 11.9414 71.8866 11.9935 71.9908 12.0977C72.0949 12.1992 72.147 12.3229 72.147 12.4688C72.147 12.6146 72.0949 12.7396 71.9908 12.8438C71.8866 12.9479 71.7616 13 71.6158 13ZM72.9581 18V13.7578H73.8058V14.3984H73.8722C73.9477 14.1719 74.0805 13.9961 74.2706 13.8711C74.4633 13.7461 74.7003 13.6836 74.9816 13.6836C75.0519 13.6836 75.1209 13.6875 75.1886 13.6953C75.2563 13.7031 75.311 13.7122 75.3527 13.7227V14.5039C75.2771 14.4883 75.2016 14.4766 75.1261 14.4688C75.0532 14.4609 74.9764 14.457 74.8956 14.457C74.6795 14.457 74.4894 14.4987 74.3253 14.582C74.1639 14.6654 74.0363 14.7826 73.9425 14.9336C73.8514 15.082 73.8058 15.2591 73.8058 15.4648V18H72.9581ZM77.5309 18.082C77.1169 18.082 76.7614 17.9935 76.4645 17.8164C76.1677 17.6367 75.9385 17.3828 75.777 17.0547C75.6182 16.7266 75.5387 16.3385 75.5387 15.8906V15.8867C75.5387 15.444 75.6182 15.0573 75.777 14.7266C75.9385 14.3958 76.1651 14.138 76.4567 13.9531C76.751 13.7682 77.0947 13.6758 77.488 13.6758C77.8838 13.6758 78.2236 13.7643 78.5075 13.9414C78.794 14.1185 79.014 14.3672 79.1677 14.6875C79.3213 15.0052 79.3981 15.3776 79.3981 15.8047V16.1016H75.9684V15.4961H78.9762L78.57 16.0586V15.7188C78.57 15.4167 78.5231 15.1667 78.4294 14.9688C78.3382 14.7682 78.2119 14.6185 78.0505 14.5195C77.889 14.4206 77.7028 14.3711 77.4919 14.3711C77.2809 14.3711 77.0921 14.4232 76.9255 14.5273C76.7614 14.6289 76.6312 14.7799 76.5348 14.9805C76.4411 15.181 76.3942 15.4271 76.3942 15.7188V16.0586C76.3942 16.3372 76.4411 16.5755 76.5348 16.7734C76.6286 16.9714 76.7614 17.1224 76.9333 17.2266C77.1078 17.3307 77.3135 17.3828 77.5505 17.3828C77.7328 17.3828 77.889 17.3581 78.0192 17.3086C78.152 17.2565 78.2601 17.1927 78.3434 17.1172C78.4294 17.0417 78.488 16.9674 78.5192 16.8945L78.5348 16.8633H79.3552L79.3473 16.8984C79.3109 17.0391 79.2471 17.1797 79.1559 17.3203C79.0648 17.4583 78.9437 17.5846 78.7927 17.6992C78.6442 17.8138 78.4645 17.9062 78.2536 17.9766C78.0453 18.0469 77.8044 18.082 77.5309 18.082ZM81.8811 18.082C81.4696 18.082 81.1142 17.9935 80.8147 17.8164C80.5178 17.6367 80.2886 17.3815 80.1272 17.0508C79.9657 16.7201 79.885 16.3255 79.885 15.8672V15.8594C79.885 15.4089 79.9644 15.0208 80.1233 14.6953C80.2847 14.3698 80.5139 14.1185 80.8108 13.9414C81.1103 13.7643 81.4657 13.6758 81.8772 13.6758C82.234 13.6758 82.5399 13.7383 82.7952 13.8633C83.053 13.9857 83.2574 14.1549 83.4084 14.3711C83.5621 14.5846 83.6584 14.8281 83.6975 15.1016L83.7014 15.1211H82.885L82.8811 15.1133C82.8342 14.9049 82.7261 14.7318 82.5569 14.5938C82.3876 14.4531 82.1623 14.3828 81.8811 14.3828C81.6467 14.3828 81.4449 14.4427 81.2756 14.5625C81.1064 14.6797 80.9761 14.849 80.885 15.0703C80.7965 15.2917 80.7522 15.5547 80.7522 15.8594V15.8672C80.7522 16.1797 80.7978 16.4479 80.8889 16.6719C80.9801 16.8958 81.1103 17.069 81.2795 17.1914C81.4488 17.3112 81.6493 17.3711 81.8811 17.3711C82.1467 17.3711 82.3616 17.3125 82.5256 17.1953C82.6923 17.0781 82.8095 16.9049 82.8772 16.6758L82.885 16.6562L83.6975 16.6523L83.6897 16.6875C83.6402 16.9635 83.5399 17.2057 83.3889 17.4141C83.2379 17.6224 83.036 17.7865 82.7834 17.9062C82.5334 18.0234 82.2327 18.082 81.8811 18.082ZM86.0125 18.0273C85.549 18.0273 85.213 17.9388 85.0047 17.7617C84.799 17.582 84.6961 17.2891 84.6961 16.8828V14.4258H84.032V13.7578H84.6961V12.6875H85.5633V13.7578H86.4734V14.4258H85.5633V16.6758C85.5633 16.9049 85.6089 17.0703 85.7 17.1719C85.7911 17.2708 85.9422 17.3203 86.1531 17.3203C86.2156 17.3203 86.269 17.319 86.3133 17.3164C86.3602 17.3138 86.4135 17.3099 86.4734 17.3047V17.9844C86.4057 17.9948 86.3328 18.0039 86.2547 18.0117C86.1766 18.0221 86.0958 18.0273 86.0125 18.0273ZM89.8378 18L88.6698 13.7578H89.5253L90.2831 17.0312H90.3495L91.2206 13.7578H92.0292L92.9042 17.0312H92.9667L93.7284 13.7578H94.5683L93.4042 18H92.5253L91.6464 14.8359H91.58L90.7089 18H89.8378ZM96.7466 18.082C96.3325 18.082 95.977 17.9935 95.6802 17.8164C95.3833 17.6367 95.1541 17.3828 94.9927 17.0547C94.8338 16.7266 94.7544 16.3385 94.7544 15.8906V15.8867C94.7544 15.444 94.8338 15.0573 94.9927 14.7266C95.1541 14.3958 95.3807 14.138 95.6723 13.9531C95.9666 13.7682 96.3104 13.6758 96.7036 13.6758C97.0994 13.6758 97.4393 13.7643 97.7231 13.9414C98.0096 14.1185 98.2296 14.3672 98.3833 14.6875C98.5369 15.0052 98.6138 15.3776 98.6138 15.8047V16.1016H95.1841V15.4961H98.1919L97.7856 16.0586V15.7188C97.7856 15.4167 97.7388 15.1667 97.645 14.9688C97.5539 14.7682 97.4276 14.6185 97.2661 14.5195C97.1046 14.4206 96.9184 14.3711 96.7075 14.3711C96.4966 14.3711 96.3078 14.4232 96.1411 14.5273C95.977 14.6289 95.8468 14.7799 95.7505 14.9805C95.6567 15.181 95.6098 15.4271 95.6098 15.7188V16.0586C95.6098 16.3372 95.6567 16.5755 95.7505 16.7734C95.8442 16.9714 95.977 17.1224 96.1489 17.2266C96.3234 17.3307 96.5291 17.3828 96.7661 17.3828C96.9484 17.3828 97.1046 17.3581 97.2348 17.3086C97.3677 17.2565 97.4757 17.1927 97.5591 17.1172C97.645 17.0417 97.7036 16.9674 97.7348 16.8945L97.7505 16.8633H98.5708L98.563 16.8984C98.5265 17.0391 98.4627 17.1797 98.3716 17.3203C98.2804 17.4583 98.1593 17.5846 98.0083 17.6992C97.8598 17.8138 97.6802 17.9062 97.4692 17.9766C97.2609 18.0469 97.02 18.082 96.7466 18.082ZM101.569 18.0703C101.371 18.0703 101.189 18.0417 101.022 17.9844C100.856 17.9245 100.707 17.8398 100.577 17.7305C100.45 17.6185 100.345 17.4857 100.265 17.332H100.198V18H99.3506V12.0938H100.198V14.4297H100.265C100.34 14.276 100.443 14.1445 100.573 14.0352C100.703 13.9232 100.853 13.8372 101.022 13.7773C101.192 13.7148 101.374 13.6836 101.569 13.6836C101.929 13.6836 102.24 13.7734 102.503 13.9531C102.766 14.1302 102.969 14.3828 103.112 14.7109C103.256 15.0391 103.327 15.4271 103.327 15.875V15.8828C103.327 16.3281 103.254 16.7148 103.108 17.043C102.965 17.3711 102.762 17.625 102.499 17.8047C102.236 17.9818 101.926 18.0703 101.569 18.0703ZM101.327 17.3438C101.564 17.3438 101.767 17.2852 101.937 17.168C102.106 17.0508 102.235 16.8828 102.323 16.6641C102.414 16.4453 102.46 16.1849 102.46 15.8828V15.875C102.46 15.5703 102.414 15.3099 102.323 15.0938C102.235 14.875 102.106 14.707 101.937 14.5898C101.767 14.4701 101.564 14.4102 101.327 14.4102C101.093 14.4102 100.89 14.4701 100.718 14.5898C100.546 14.707 100.414 14.875 100.323 15.0938C100.232 15.3125 100.187 15.5729 100.187 15.875V15.8828C100.187 16.1823 100.232 16.4427 100.323 16.6641C100.414 16.8828 100.546 17.0508 100.718 17.168C100.89 17.2852 101.093 17.3438 101.327 17.3438ZM105.568 18.082C105.227 18.082 104.93 18.0326 104.677 17.9336C104.425 17.832 104.224 17.6927 104.076 17.5156C103.927 17.3359 103.84 17.1276 103.814 16.8906V16.8828H104.666V16.8906C104.72 17.0495 104.824 17.1784 104.978 17.2773C105.132 17.3763 105.335 17.4258 105.588 17.4258C105.762 17.4258 105.914 17.401 106.045 17.3516C106.177 17.3021 106.282 17.2331 106.357 17.1445C106.433 17.056 106.47 16.9544 106.47 16.8398V16.832C106.47 16.6992 106.417 16.5872 106.31 16.4961C106.203 16.4049 106.028 16.3307 105.783 16.2734L105.103 16.1172C104.838 16.0573 104.617 15.9753 104.443 15.8711C104.268 15.7669 104.14 15.6393 104.056 15.4883C103.973 15.3346 103.931 15.1549 103.931 14.9492V14.9453C103.931 14.6979 104.002 14.4792 104.142 14.2891C104.283 14.0964 104.477 13.9466 104.724 13.8398C104.974 13.7305 105.259 13.6758 105.58 13.6758C105.903 13.6758 106.184 13.7266 106.423 13.8281C106.666 13.9271 106.857 14.0651 106.998 14.2422C107.138 14.4167 107.222 14.6198 107.248 14.8516V14.8555H106.435V14.8477C106.396 14.6992 106.302 14.5755 106.154 14.4766C106.008 14.3776 105.815 14.3281 105.576 14.3281C105.422 14.3281 105.285 14.3529 105.166 14.4023C105.046 14.4492 104.951 14.5156 104.88 14.6016C104.813 14.6849 104.779 14.7839 104.779 14.8984V14.9062C104.779 14.9948 104.801 15.0729 104.845 15.1406C104.892 15.2057 104.965 15.2643 105.064 15.3164C105.163 15.3659 105.291 15.4102 105.447 15.4492L106.123 15.6016C106.529 15.6979 106.831 15.8372 107.029 16.0195C107.229 16.2018 107.33 16.4466 107.33 16.7539V16.7617C107.33 17.0221 107.253 17.2526 107.099 17.4531C106.946 17.651 106.736 17.806 106.47 17.918C106.207 18.0273 105.907 18.082 105.568 18.082ZM108.039 18V13.7578H108.891V18H108.039ZM108.469 13C108.323 13 108.198 12.9479 108.094 12.8438C107.99 12.7396 107.938 12.6146 107.938 12.4688C107.938 12.3229 107.99 12.1992 108.094 12.0977C108.198 11.9935 108.323 11.9414 108.469 11.9414C108.615 11.9414 108.74 11.9935 108.844 12.0977C108.948 12.1992 109 12.3229 109 12.4688C109 12.6146 108.948 12.7396 108.844 12.8438C108.74 12.9479 108.615 13 108.469 13ZM111.413 18.0273C110.949 18.0273 110.613 17.9388 110.405 17.7617C110.199 17.582 110.096 17.2891 110.096 16.8828V14.4258H109.432V13.7578H110.096V12.6875H110.964V13.7578H111.874V14.4258H110.964V16.6758C110.964 16.9049 111.009 17.0703 111.1 17.1719C111.191 17.2708 111.342 17.3203 111.553 17.3203C111.616 17.3203 111.669 17.319 111.714 17.3164C111.76 17.3138 111.814 17.3099 111.874 17.3047V17.9844C111.806 17.9948 111.733 18.0039 111.655 18.0117C111.577 18.0221 111.496 18.0273 111.413 18.0273ZM114.29 18.082C113.876 18.082 113.521 17.9935 113.224 17.8164C112.927 17.6367 112.698 17.3828 112.536 17.0547C112.378 16.7266 112.298 16.3385 112.298 15.8906V15.8867C112.298 15.444 112.378 15.0573 112.536 14.7266C112.698 14.3958 112.924 14.138 113.216 13.9531C113.51 13.7682 113.854 13.6758 114.247 13.6758C114.643 13.6758 114.983 13.7643 115.267 13.9414C115.553 14.1185 115.773 14.3672 115.927 14.6875C116.081 15.0052 116.158 15.3776 116.158 15.8047V16.1016H112.728V15.4961H115.736L115.329 16.0586V15.7188C115.329 15.4167 115.283 15.1667 115.189 14.9688C115.098 14.7682 114.971 14.6185 114.81 14.5195C114.648 14.4206 114.462 14.3711 114.251 14.3711C114.04 14.3711 113.852 14.4232 113.685 14.5273C113.521 14.6289 113.391 14.7799 113.294 14.9805C113.2 15.181 113.154 15.4271 113.154 15.7188V16.0586C113.154 16.3372 113.2 16.5755 113.294 16.7734C113.388 16.9714 113.521 17.1224 113.693 17.2266C113.867 17.3307 114.073 17.3828 114.31 17.3828C114.492 17.3828 114.648 17.3581 114.779 17.3086C114.911 17.2565 115.019 17.1927 115.103 17.1172C115.189 17.0417 115.247 16.9674 115.279 16.8945L115.294 16.8633H116.115L116.107 16.8984C116.07 17.0391 116.006 17.1797 115.915 17.3203C115.824 17.4583 115.703 17.5846 115.552 17.6992C115.404 17.8138 115.224 17.9062 115.013 17.9766C114.805 18.0469 114.564 18.082 114.29 18.082Z" fill="#1C1C1C"/>
</svg>
