<svg width="191" height="48" viewBox="0 0 191 48" fill="none" xmlns="http://www.w3.org/2000/svg">
<rect width="191" height="48" rx="12" fill="white"/>
<path d="M35.8438 16.2754C35.8438 15.34 35.8438 14.8723 35.9815 14.4982C36.2078 13.8837 36.6923 13.3993 37.3068 13.1729C37.6809 13.0352 38.1486 13.0352 39.084 13.0352V13.0352C40.0194 13.0352 40.4871 13.0352 40.8612 13.1729C41.4757 13.3993 41.9601 13.8837 42.1865 14.4982C42.3242 14.8723 42.3242 15.34 42.3242 16.2754V23.9863C42.3242 24.9217 42.3242 25.3895 42.1865 25.7635C41.9601 26.3781 41.4757 26.8625 40.8612 27.0888C40.4871 27.2266 40.0194 27.2266 39.084 27.2266V27.2266C38.1486 27.2266 37.6809 27.2266 37.3068 27.0888C36.6923 26.8625 36.2078 26.3781 35.9815 25.7635C35.8438 25.3895 35.8438 24.9217 35.8438 23.9863V16.2754Z" fill="black"/>
<path d="M43.7734 31.6973C43.7734 30.7618 43.7734 30.2941 43.9112 29.9201C44.1375 29.3055 44.6219 28.8211 45.2365 28.5948C45.6105 28.457 46.0783 28.457 47.0137 28.457H54.9434C55.8788 28.457 56.3465 28.457 56.7205 28.5948C57.3351 28.8211 57.8195 29.3055 58.0458 29.9201C58.1836 30.2941 58.1836 30.7618 58.1836 31.6973V31.6973C58.1836 32.6327 58.1836 33.1004 58.0458 33.4744C57.8195 34.089 57.3351 34.5734 56.7205 34.7997C56.3465 34.9375 55.8788 34.9375 54.9434 34.9375H47.0137C46.0783 34.9375 45.6105 34.9375 45.2365 34.7997C44.6219 34.5734 44.1375 34.089 43.9112 33.4744C43.7734 33.1004 43.7734 32.6327 43.7734 31.6973V31.6973Z" fill="black"/>
<path d="M43.7734 23.9863C43.7734 23.0509 43.7734 22.5832 43.9112 22.2091C44.1375 21.5946 44.6219 21.1102 45.2365 20.8839C45.6105 20.7461 46.0783 20.7461 47.0137 20.7461V20.7461C47.9491 20.7461 48.4168 20.7461 48.7909 20.8839C49.4054 21.1102 49.8898 21.5946 50.1161 22.2091C50.2539 22.5832 50.2539 23.0509 50.2539 23.9863V23.9863C50.2539 24.9217 50.2539 25.3895 50.1161 25.7635C49.8898 26.3781 49.4054 26.8625 48.7909 27.0888C48.4168 27.2266 47.9491 27.2266 47.0137 27.2266V27.2266C46.0783 27.2266 45.6105 27.2266 45.2365 27.0888C44.6219 26.8625 44.1375 26.3781 43.9112 25.7635C43.7734 25.3895 43.7734 24.9217 43.7734 23.9863V23.9863Z" fill="black"/>
<path d="M35.8438 31.6973C35.8438 30.7618 35.8438 30.2941 35.9815 29.9201C36.2078 29.3055 36.6923 28.8211 37.3068 28.5948C37.6809 28.457 38.1486 28.457 39.084 28.457V28.457C40.0194 28.457 40.4871 28.457 40.8612 28.5948C41.4757 28.8211 41.9601 29.3055 42.1865 29.9201C42.3242 30.2941 42.3242 30.7618 42.3242 31.6973V31.6973C42.3242 32.6327 42.3242 33.1004 42.1865 33.4744C41.9601 34.089 41.4757 34.5734 40.8612 34.7997C40.4871 34.9375 40.0194 34.9375 39.084 34.9375V34.9375C38.1486 34.9375 37.6809 34.9375 37.3068 34.7997C36.6923 34.5734 36.2078 34.089 35.9815 33.4744C35.8438 33.1004 35.8438 32.6327 35.8438 31.6973V31.6973Z" fill="black"/>
<path d="M43.7734 16.2754C43.7734 15.34 43.7734 14.8723 43.9112 14.4982C44.1375 13.8837 44.6219 13.3993 45.2365 13.1729C45.6105 13.0352 46.0783 13.0352 47.0137 13.0352V13.0352C47.9491 13.0352 48.4168 13.0352 48.7909 13.1729C49.4054 13.3993 49.8898 13.8837 50.1161 14.4982C50.2539 14.8723 50.2539 15.34 50.2539 16.2754V16.2754C50.2539 17.2108 50.2539 17.6785 50.1161 18.0526C49.8898 18.6671 49.4054 19.1515 48.7909 19.3779C48.4168 19.5156 47.9491 19.5156 47.0137 19.5156V19.5156C46.0783 19.5156 45.6105 19.5156 45.2365 19.3779C44.6219 19.1515 44.1375 18.6671 43.9112 18.0526C43.7734 17.6785 43.7734 17.2108 43.7734 16.2754V16.2754Z" fill="black"/>
<path d="M51.7031 23.9863C51.7031 23.0509 51.7031 22.5832 51.8409 22.2091C52.0672 21.5946 52.5516 21.1102 53.1662 20.8839C53.5402 20.7461 54.0079 20.7461 54.9434 20.7461V20.7461C55.8788 20.7461 56.3465 20.7461 56.7205 20.8839C57.3351 21.1102 57.8195 21.5946 58.0458 22.2091C58.1836 22.5832 58.1836 23.0509 58.1836 23.9863V23.9863C58.1836 24.9217 58.1836 25.3895 58.0458 25.7635C57.8195 26.3781 57.3351 26.8625 56.7205 27.0888C56.3465 27.2266 55.8788 27.2266 54.9434 27.2266V27.2266C54.0079 27.2266 53.5402 27.2266 53.1662 27.0888C52.5516 26.8625 52.0672 26.3781 51.8409 25.7635C51.7031 25.3895 51.7031 24.9217 51.7031 23.9863V23.9863Z" fill="black"/>
<path d="M51.7031 16.2754C51.7031 15.34 51.7031 14.8723 51.8409 14.4982C52.0672 13.8837 52.5516 13.3993 53.1662 13.1729C53.5402 13.0352 54.0079 13.0352 54.9434 13.0352V13.0352C55.8788 13.0352 56.3465 13.0352 56.7205 13.1729C57.3351 13.3993 57.8195 13.8837 58.0458 14.4982C58.1836 14.8723 58.1836 15.34 58.1836 16.2754V16.2754C58.1836 17.2108 58.1836 17.6785 58.0458 18.0526C57.8195 18.6671 57.3351 19.1515 56.7205 19.3779C56.3465 19.5156 55.8788 19.5156 54.9434 19.5156V19.5156C54.0079 19.5156 53.5402 19.5156 53.1662 19.3779C52.5516 19.1515 52.0672 18.6671 51.8409 18.0526C51.7031 17.6785 51.7031 17.2108 51.7031 16.2754V16.2754Z" fill="black"/>
<path d="M65.6211 31V16.9082H70.875C72.2747 16.9082 73.4694 17.1816 74.459 17.7285C75.4486 18.2754 76.2038 19.0697 76.7246 20.1113C77.252 21.153 77.5156 22.4128 77.5156 23.8906V23.9102C77.5156 25.4076 77.252 26.6868 76.7246 27.748C76.2038 28.8027 75.4486 29.61 74.459 30.1699C73.4759 30.7233 72.2812 31 70.875 31H65.6211ZM68.1406 28.8809H70.5527C71.4902 28.8809 72.2845 28.6888 72.9355 28.3047C73.5931 27.9206 74.0911 27.3607 74.4297 26.625C74.7747 25.8893 74.9473 24.9941 74.9473 23.9395V23.9199C74.9473 22.8848 74.7747 22.0026 74.4297 21.2734C74.0846 20.5443 73.5833 19.9876 72.9258 19.6035C72.2682 19.2194 71.4772 19.0273 70.5527 19.0273H68.1406V28.8809ZM84.2271 31.2148C83.1789 31.2148 82.2707 30.9935 81.5025 30.5508C80.7408 30.1081 80.1516 29.4766 79.7349 28.6562C79.3248 27.8294 79.1197 26.8464 79.1197 25.707V25.6875C79.1197 24.5547 79.328 23.5781 79.7447 22.7578C80.1614 21.931 80.7505 21.2962 81.5123 20.8535C82.2805 20.4108 83.1854 20.1895 84.2271 20.1895C85.2753 20.1895 86.1802 20.4108 86.942 20.8535C87.7037 21.2962 88.2929 21.9277 88.7095 22.748C89.1262 23.5684 89.3345 24.5482 89.3345 25.6875V25.707C89.3345 26.8464 89.1262 27.8294 88.7095 28.6562C88.2994 29.4766 87.7134 30.1081 86.9517 30.5508C86.19 30.9935 85.2818 31.2148 84.2271 31.2148ZM84.2271 29.2422C84.7805 29.2422 85.2525 29.1022 85.6431 28.8223C86.0337 28.5423 86.3332 28.1387 86.5416 27.6113C86.7499 27.084 86.8541 26.4492 86.8541 25.707V25.6875C86.8541 24.9453 86.7499 24.3138 86.5416 23.793C86.3332 23.2656 86.0337 22.862 85.6431 22.582C85.2525 22.3021 84.7805 22.1621 84.2271 22.1621C83.6802 22.1621 83.2115 22.3021 82.8209 22.582C82.4302 22.862 82.1308 23.2656 81.9224 23.793C81.7141 24.3138 81.6099 24.9453 81.6099 25.6875V25.707C81.6099 26.4557 81.7141 27.0938 81.9224 27.6211C82.1308 28.1484 82.4302 28.5521 82.8209 28.832C83.2115 29.1055 83.6802 29.2422 84.2271 29.2422ZM92.9503 31L90.0792 20.4043H92.5206L94.2882 28.4121H94.4249L96.4757 20.4043H98.7902L100.851 28.4121H100.987L102.755 20.4043H105.157L102.296 31H99.7472L97.6671 23.3047H97.5304L95.4698 31H92.9503ZM106.742 31V20.4043H109.174V22.0352H109.31C109.571 21.4622 109.958 21.013 110.472 20.6875C110.993 20.3555 111.641 20.1895 112.416 20.1895C113.594 20.1895 114.496 20.5345 115.121 21.2246C115.752 21.9147 116.068 22.888 116.068 24.1445V31H113.636V24.6914C113.636 23.8841 113.461 23.2754 113.109 22.8652C112.764 22.4486 112.23 22.2402 111.507 22.2402C111.026 22.2402 110.609 22.3477 110.257 22.5625C109.912 22.7773 109.646 23.0768 109.457 23.4609C109.268 23.8451 109.174 24.3008 109.174 24.8281V31H106.742ZM118.492 31V16.3613H120.924V31H118.492ZM128.046 31.2148C126.998 31.2148 126.089 30.9935 125.321 30.5508C124.559 30.1081 123.97 29.4766 123.554 28.6562C123.143 27.8294 122.938 26.8464 122.938 25.707V25.6875C122.938 24.5547 123.147 23.5781 123.563 22.7578C123.98 21.931 124.569 21.2962 125.331 20.8535C126.099 20.4108 127.004 20.1895 128.046 20.1895C129.094 20.1895 129.999 20.4108 130.761 20.8535C131.522 21.2962 132.111 21.9277 132.528 22.748C132.945 23.5684 133.153 24.5482 133.153 25.6875V25.707C133.153 26.8464 132.945 27.8294 132.528 28.6562C132.118 29.4766 131.532 30.1081 130.77 30.5508C130.009 30.9935 129.1 31.2148 128.046 31.2148ZM128.046 29.2422C128.599 29.2422 129.071 29.1022 129.462 28.8223C129.852 28.5423 130.152 28.1387 130.36 27.6113C130.568 27.084 130.673 26.4492 130.673 25.707V25.6875C130.673 24.9453 130.568 24.3138 130.36 23.793C130.152 23.2656 129.852 22.862 129.462 22.582C129.071 22.3021 128.599 22.1621 128.046 22.1621C127.499 22.1621 127.03 22.3021 126.639 22.582C126.249 22.862 125.949 23.2656 125.741 23.793C125.533 24.3138 125.429 24.9453 125.429 25.6875V25.707C125.429 26.4557 125.533 27.0938 125.741 27.6211C125.949 28.1484 126.249 28.5521 126.639 28.832C127.03 29.1055 127.499 29.2422 128.046 29.2422ZM138.019 31.1758C137.342 31.1758 136.74 31.0456 136.212 30.7852C135.685 30.5247 135.272 30.1569 134.972 29.6816C134.673 29.1999 134.523 28.64 134.523 28.002V27.9824C134.523 27.3509 134.679 26.8105 134.992 26.3613C135.304 25.9056 135.76 25.5475 136.359 25.2871C136.958 25.0267 137.684 24.8704 138.536 24.8184L142.492 24.584V26.1855L138.888 26.4199C138.224 26.4525 137.729 26.5957 137.404 26.8496C137.085 27.097 136.925 27.4355 136.925 27.8652V27.8848C136.925 28.334 137.094 28.6855 137.433 28.9395C137.778 29.1934 138.217 29.3203 138.751 29.3203C139.24 29.3203 139.673 29.2227 140.05 29.0273C140.428 28.832 140.727 28.5684 140.949 28.2363C141.17 27.8978 141.281 27.5202 141.281 27.1035V23.793C141.281 23.2591 141.111 22.849 140.773 22.5625C140.434 22.2695 139.943 22.123 139.298 22.123C138.732 22.123 138.273 22.2272 137.921 22.4355C137.576 22.6374 137.345 22.9173 137.228 23.2754L137.218 23.3242H134.933L134.943 23.2363C135.021 22.6309 135.249 22.1003 135.626 21.6445C136.01 21.1888 136.522 20.834 137.16 20.5801C137.804 20.3197 138.553 20.1895 139.406 20.1895C140.311 20.1895 141.082 20.3327 141.72 20.6191C142.358 20.9056 142.846 21.3158 143.185 21.8496C143.523 22.377 143.693 23.0117 143.693 23.7539V31H141.281V29.5059H141.134C140.939 29.8509 140.685 30.1504 140.372 30.4043C140.066 30.6517 139.715 30.8438 139.318 30.9805C138.921 31.1107 138.488 31.1758 138.019 31.1758ZM149.926 31.1855C149.034 31.1855 148.262 30.9642 147.611 30.5215C146.96 30.0723 146.456 29.4375 146.098 28.6172C145.74 27.7969 145.56 26.8268 145.56 25.707V25.6973C145.56 24.5645 145.736 23.5911 146.088 22.7773C146.446 21.957 146.95 21.3255 147.601 20.8828C148.253 20.4401 149.024 20.2188 149.916 20.2188C150.404 20.2188 150.86 20.2969 151.283 20.4531C151.706 20.6094 152.077 20.8275 152.396 21.1074C152.715 21.3874 152.969 21.7259 153.158 22.123H153.295V16.3613H155.726V31H153.295V29.3105H153.158C152.963 29.7012 152.706 30.0365 152.387 30.3164C152.074 30.5964 151.71 30.8112 151.293 30.9609C150.876 31.1107 150.42 31.1855 149.926 31.1855ZM150.668 29.1348C151.215 29.1348 151.687 28.998 152.084 28.7246C152.481 28.4447 152.787 28.0475 153.002 27.5332C153.217 27.0189 153.324 26.4134 153.324 25.7168V25.6973C153.324 24.9876 153.213 24.3789 152.992 23.8711C152.777 23.3568 152.471 22.9629 152.074 22.6895C151.677 22.4095 151.208 22.2695 150.668 22.2695C150.128 22.2695 149.659 22.4095 149.262 22.6895C148.871 22.9629 148.568 23.3535 148.353 23.8613C148.145 24.3691 148.041 24.9811 148.041 25.6973V25.707C148.041 26.4167 148.145 27.0286 148.353 27.543C148.568 28.0573 148.871 28.4512 149.262 28.7246C149.659 28.998 150.128 29.1348 150.668 29.1348Z" fill="#1C1C1C"/>
</svg>
